<svg xmlns="http://www.w3.org/2000/svg" xmlns:xlink="http://www.w3.org/1999/xlink" width="1080" zoomAndPan="magnify" viewBox="0 0 810 809.999993" height="1080" preserveAspectRatio="xMidYMid meet" version="1.0"><defs><g/><clipPath id="89f813eda1"><rect x="0" width="116" y="0" height="143"/></clipPath><clipPath id="81c353868c"><rect x="0" width="124" y="0" height="146"/></clipPath><clipPath id="af09b12a89"><rect x="0" width="94" y="0" height="120"/></clipPath></defs><path stroke-linecap="butt" transform="matrix(0.0890279, 0.744697, -0.744697, 0.0890279, 162.30193, 213.161421)" fill="none" stroke-linejoin="miter" d="M -0.0014963 5.000249 L 589.111928 4.997999 " stroke="#000000" stroke-width="10" stroke-opacity="1" stroke-miterlimit="4"/><path stroke-linecap="butt" transform="matrix(0.744697, -0.0890279, 0.0890279, 0.744697, 158.133776, 209.882369)" fill="none" stroke-linejoin="miter" d="M -0.000984982 4.999364 L 598.784717 4.999434 " stroke="#000000" stroke-width="10" stroke-opacity="1" stroke-miterlimit="4"/><path stroke-linecap="butt" transform="matrix(0.744697, -0.0890279, 0.0890279, 0.744697, 206.857611, 649.036739)" fill="none" stroke-linejoin="miter" d="M 0.00232834 5.002284 L 598.782859 5.001736 " stroke="#000000" stroke-width="10" stroke-opacity="1" stroke-miterlimit="4"/><path stroke-linecap="butt" transform="matrix(0.330651, -0.673179, 0.673179, 0.330651, 549.073344, 612.883645)" fill="none" stroke-linejoin="miter" d="M 0.0000993923 2.502211 L 258.249143 2.502607 " stroke="#000000" stroke-width="5" stroke-opacity="1" stroke-miterlimit="4"/><path stroke-linecap="butt" transform="matrix(0.085664, 0.745092, -0.745092, 0.085664, 610.196757, 159.635052)" fill="none" stroke-linejoin="miter" d="M -0.000948085 4.998068 L 589.114702 4.999609 " stroke="#000000" stroke-width="10" stroke-opacity="1" stroke-miterlimit="4"/><path stroke-linecap="butt" transform="matrix(0.364163, 0.655657, -0.655657, 0.364163, 501.601274, 520.569378)" fill="none" stroke-linejoin="miter" d="M -0.00154688 2.000511 L 137.928133 1.998013 " stroke="#000000" stroke-width="4" stroke-opacity="1" stroke-miterlimit="4"/><path stroke-linecap="butt" transform="matrix(0.641269, -0.38894, 0.38894, 0.641269, 499.512458, 520.010202)" fill="none" stroke-linejoin="miter" d="M -0.00161236 1.999379 L 208.765485 1.9972 " stroke="#000000" stroke-width="4" stroke-opacity="1" stroke-miterlimit="4"/><g transform="matrix(1, 0, 0, 1, 205, 255)"><g clip-path="url(#89f813eda1)"><g fill="#000000" fill-opacity="1"><g transform="translate(19.119525, 115.557781)"><g><path d="M 42.078125 -54.921875 L 37.25 -58.15625 C 38.320312 -59.113281 39.351562 -60.132812 40.34375 -61.21875 C 41.332031 -62.3125 42.113281 -63.195312 42.6875 -63.875 C 41.144531 -64.726562 39.160156 -65.601562 36.734375 -66.5 C 34.304688 -67.394531 31.734375 -68.234375 29.015625 -69.015625 C 26.304688 -69.804688 23.710938 -70.472656 21.234375 -71.015625 L 24.15625 -76.53125 C 26.632812 -75.988281 29.378906 -75.289062 32.390625 -74.4375 C 35.398438 -73.582031 38.332031 -72.664062 41.1875 -71.6875 C 44.039062 -70.707031 46.4375 -69.703125 48.375 -68.671875 L 50.71875 -64.609375 C 50.164062 -63.878906 49.378906 -62.945312 48.359375 -61.8125 C 47.347656 -60.6875 46.28125 -59.503906 45.15625 -58.265625 C 44.039062 -57.023438 43.015625 -55.910156 42.078125 -54.921875 Z M 29.6875 -4.921875 L 27.5 -11.578125 C 29.863281 -11.378906 32.226562 -11.3125 34.59375 -11.375 C 36.96875 -11.4375 39.609375 -11.734375 42.515625 -12.265625 C 43.910156 -12.523438 45.273438 -13.015625 46.609375 -13.734375 C 47.953125 -14.460938 49.007812 -15.472656 49.78125 -16.765625 C 50.550781 -18.066406 50.75 -19.722656 50.375 -21.734375 C 49.988281 -23.796875 48.9375 -25.90625 47.21875 -28.0625 C 45.5 -30.226562 43.53125 -32.3125 41.3125 -34.3125 C 39.09375 -36.3125 36.96875 -38.066406 34.9375 -39.578125 C 33.769531 -40.429688 32.4375 -41.347656 30.9375 -42.328125 C 29.445312 -43.304688 27.992188 -44.195312 26.578125 -45 L 30.71875 -50.171875 C 31.945312 -49.285156 33.234375 -48.351562 34.578125 -47.375 C 35.921875 -46.40625 37.210938 -45.4375 38.453125 -44.46875 C 43.378906 -40.863281 47.550781 -37.273438 50.96875 -33.703125 C 54.394531 -30.128906 56.488281 -26.3125 57.25 -22.25 C 57.75 -19.519531 57.671875 -17.210938 57.015625 -15.328125 C 56.359375 -13.453125 55.347656 -11.882812 53.984375 -10.625 C 52.617188 -9.375 51.101562 -8.40625 49.4375 -7.71875 C 47.769531 -7.039062 46.179688 -6.5625 44.671875 -6.28125 C 41.703125 -5.726562 38.960938 -5.359375 36.453125 -5.171875 C 33.941406 -4.992188 31.6875 -4.910156 29.6875 -4.921875 Z M 85.65625 -22.796875 L 80.234375 -18.5 C 78.859375 -21.195312 77.046875 -24.140625 74.796875 -27.328125 C 72.546875 -30.515625 70.109375 -33.578125 67.484375 -36.515625 C 64.867188 -39.453125 62.289062 -41.878906 59.75 -43.796875 L 64.65625 -47.796875 C 67.21875 -45.753906 69.84375 -43.238281 72.53125 -40.25 C 75.21875 -37.269531 77.722656 -34.238281 80.046875 -31.15625 C 82.378906 -28.082031 84.25 -25.296875 85.65625 -22.796875 Z M 27.390625 -26.890625 C 25.972656 -24.742188 24.222656 -22.347656 22.140625 -19.703125 C 20.054688 -17.066406 17.78125 -14.421875 15.3125 -11.765625 C 12.851562 -9.117188 10.328125 -6.679688 7.734375 -4.453125 L 2.921875 -9.109375 C 5.160156 -10.898438 7.546875 -13.09375 10.078125 -15.6875 C 12.609375 -18.289062 15.003906 -20.960938 17.265625 -23.703125 C 19.523438 -26.441406 21.328125 -28.878906 22.671875 -31.015625 Z M 27.390625 -26.890625 "/></g></g></g></g></g><g transform="matrix(1, 0, 0, 1, 308, 276)"><g clip-path="url(#81c353868c)"><g fill="#000000" fill-opacity="1"><g transform="translate(29.070559, 119.944337)"><g><path d="M 36.5625 -83.390625 L 43.125 -85.390625 C 43.300781 -84.628906 43.523438 -83.644531 43.796875 -82.4375 C 44.066406 -81.238281 44.332031 -80.203125 44.59375 -79.328125 C 45.132812 -77.359375 45.734375 -75.296875 46.390625 -73.140625 C 47.054688 -70.984375 47.65625 -68.910156 48.1875 -66.921875 C 49.976562 -67.660156 51.6875 -68.34375 53.3125 -68.96875 C 54.945312 -69.59375 56.476562 -70.15625 57.90625 -70.65625 C 59.039062 -71.050781 60.140625 -71.441406 61.203125 -71.828125 C 62.273438 -72.222656 63.269531 -72.59375 64.1875 -72.9375 L 66.078125 -66.71875 C 65.421875 -66.59375 64.457031 -66.335938 63.1875 -65.953125 C 61.925781 -65.566406 60.753906 -65.207031 59.671875 -64.875 C 58.367188 -64.40625 56.878906 -63.867188 55.203125 -63.265625 C 53.535156 -62.671875 51.707031 -62.003906 49.71875 -61.265625 C 50.28125 -59.234375 50.867188 -57.050781 51.484375 -54.71875 C 52.097656 -52.394531 52.628906 -50.1875 53.078125 -48.09375 C 53.523438 -46 53.816406 -44.21875 53.953125 -42.75 C 54.160156 -40.863281 53.875 -39.425781 53.09375 -38.4375 C 52.320312 -37.445312 50.988281 -36.664062 49.09375 -36.09375 C 48.0625 -35.78125 46.789062 -35.46875 45.28125 -35.15625 C 43.769531 -34.851562 42.320312 -34.597656 40.9375 -34.390625 C 39.550781 -34.191406 38.460938 -34.03125 37.671875 -33.90625 L 36.171875 -39.5 C 37.765625 -39.613281 39.398438 -39.816406 41.078125 -40.109375 C 42.753906 -40.398438 44.113281 -40.703125 45.15625 -41.015625 C 46.238281 -41.347656 46.976562 -41.734375 47.375 -42.171875 C 47.78125 -42.609375 47.890625 -43.332031 47.703125 -44.34375 C 47.554688 -45.863281 47.140625 -48.015625 46.453125 -50.796875 C 45.765625 -53.578125 45.019531 -56.378906 44.21875 -59.203125 C 39.914062 -57.453125 35.367188 -55.613281 30.578125 -53.6875 C 25.785156 -51.757812 21.269531 -49.898438 17.03125 -48.109375 C 17.945312 -45.109375 18.835938 -42.1875 19.703125 -39.34375 C 20.566406 -36.5 21.335938 -33.96875 22.015625 -31.75 C 22.691406 -29.53125 23.226562 -27.882812 23.625 -26.8125 C 24.394531 -24.46875 25.144531 -22.507812 25.875 -20.9375 C 26.601562 -19.363281 27.5625 -18.222656 28.75 -17.515625 C 29.945312 -16.816406 31.648438 -16.550781 33.859375 -16.71875 C 36.066406 -16.894531 39.070312 -17.5625 42.875 -18.71875 C 46.039062 -19.675781 49.207031 -20.734375 52.375 -21.890625 C 55.550781 -23.046875 58.484375 -24.207031 61.171875 -25.375 C 63.867188 -26.550781 66.066406 -27.550781 67.765625 -28.375 L 69.46875 -21.8125 C 67.625 -21.0625 65.351562 -20.148438 62.65625 -19.078125 C 59.96875 -18.015625 57.097656 -16.921875 54.046875 -15.796875 C 50.992188 -14.679688 48 -13.675781 45.0625 -12.78125 C 40.226562 -11.3125 36.289062 -10.457031 33.25 -10.21875 C 30.207031 -9.976562 27.769531 -10.332031 25.9375 -11.28125 C 24.101562 -12.238281 22.609375 -13.796875 21.453125 -15.953125 C 20.296875 -18.117188 19.148438 -20.847656 18.015625 -24.140625 C 17.628906 -25.410156 17.078125 -27.179688 16.359375 -29.453125 C 15.640625 -31.722656 14.84375 -34.28125 13.96875 -37.125 C 13.101562 -39.96875 12.234375 -42.832031 11.359375 -45.71875 C 9.460938 -44.894531 7.710938 -44.125 6.109375 -43.40625 C 4.503906 -42.695312 3.144531 -42.113281 2.03125 -41.65625 C 0.757812 -41.082031 -0.617188 -40.457031 -2.109375 -39.78125 C -3.609375 -39.101562 -4.90625 -38.5 -6 -37.96875 L -8.625 -44.15625 C -7.3125 -44.550781 -5.921875 -45.019531 -4.453125 -45.5625 C -2.984375 -46.113281 -1.546875 -46.660156 -0.140625 -47.203125 C 0.984375 -47.679688 2.382812 -48.253906 4.0625 -48.921875 C 5.738281 -49.597656 7.609375 -50.375 9.671875 -51.25 L 5.96875 -63.6875 C 5.601562 -64.894531 5.234375 -66.007812 4.859375 -67.03125 C 4.484375 -68.050781 3.988281 -69.164062 3.375 -70.375 L 10.1875 -72.4375 C 10.351562 -71.476562 10.578125 -70.429688 10.859375 -69.296875 C 11.148438 -68.160156 11.476562 -66.988281 11.84375 -65.78125 L 15.453125 -53.65625 C 19.585938 -55.363281 24.015625 -57.1875 28.734375 -59.125 C 33.453125 -61.0625 38.078125 -62.9375 42.609375 -64.75 C 42.046875 -66.84375 41.421875 -69.015625 40.734375 -71.265625 C 40.046875 -73.515625 39.429688 -75.53125 38.890625 -77.3125 C 38.597656 -78.289062 38.222656 -79.367188 37.765625 -80.546875 C 37.316406 -81.734375 36.914062 -82.679688 36.5625 -83.390625 Z M 36.5625 -83.390625 "/></g></g></g></g></g><g transform="matrix(1, 0, 0, 1, 428, 276)"><g clip-path="url(#af09b12a89)"><g fill="#000000" fill-opacity="1"><g transform="translate(10.561414, 95.700519)"><g><path d="M 36.75 -65.4375 C 36.113281 -64.382812 35.410156 -63 34.640625 -61.28125 C 33.941406 -59.84375 33.0625 -57.882812 32 -55.40625 C 30.945312 -52.925781 29.832031 -50.25 28.65625 -47.375 C 27.488281 -44.507812 26.351562 -41.695312 25.25 -38.9375 C 24.15625 -36.175781 23.1875 -33.742188 22.34375 -31.640625 C 24.15625 -33.753906 26.023438 -35.332031 27.953125 -36.375 C 29.890625 -37.425781 31.847656 -38.070312 33.828125 -38.3125 C 36.429688 -38.625 38.695312 -38.066406 40.625 -36.640625 C 42.5625 -35.210938 43.757812 -32.960938 44.21875 -29.890625 C 44.625 -27.453125 44.988281 -24.851562 45.3125 -22.09375 C 45.644531 -19.34375 45.984375 -16.988281 46.328125 -15.03125 C 46.679688 -13.007812 47.523438 -11.601562 48.859375 -10.8125 C 50.203125 -10.03125 51.78125 -9.75 53.59375 -9.96875 C 55.882812 -10.25 57.863281 -11.109375 59.53125 -12.546875 C 61.195312 -13.992188 62.59375 -15.769531 63.71875 -17.875 C 64.84375 -19.988281 65.738281 -22.234375 66.40625 -24.609375 C 67.070312 -26.992188 67.550781 -29.234375 67.84375 -31.328125 L 73.03125 -28.125 C 72.144531 -23.738281 70.890625 -19.8125 69.265625 -16.34375 C 67.648438 -12.882812 65.550781 -10.078125 62.96875 -7.921875 C 60.382812 -5.773438 57.203125 -4.476562 53.421875 -4.03125 C 50.648438 -3.695312 48.398438 -3.941406 46.671875 -4.765625 C 44.953125 -5.585938 43.65625 -6.71875 42.78125 -8.15625 C 41.90625 -9.59375 41.320312 -11.054688 41.03125 -12.546875 C 40.632812 -14.878906 40.269531 -17.441406 39.9375 -20.234375 C 39.601562 -23.035156 39.253906 -25.550781 38.890625 -27.78125 C 38.617188 -29.582031 37.898438 -30.914062 36.734375 -31.78125 C 35.578125 -32.644531 34.066406 -32.960938 32.203125 -32.734375 C 30.015625 -32.472656 27.984375 -31.597656 26.109375 -30.109375 C 24.234375 -28.617188 22.597656 -26.785156 21.203125 -24.609375 C 19.804688 -22.429688 18.703125 -20.242188 17.890625 -18.046875 C 17.441406 -16.796875 16.96875 -15.304688 16.46875 -13.578125 C 15.96875 -11.847656 15.488281 -10.070312 15.03125 -8.25 C 14.570312 -6.425781 14.171875 -4.707031 13.828125 -3.09375 C 13.484375 -1.488281 13.234375 -0.191406 13.078125 0.796875 L 6.671875 -0.5625 C 7.304688 -3.332031 8.191406 -6.546875 9.328125 -10.203125 C 10.460938 -13.859375 11.734375 -17.726562 13.140625 -21.8125 C 14.546875 -25.90625 16.003906 -29.976562 17.515625 -34.03125 C 19.035156 -38.082031 20.484375 -41.90625 21.859375 -45.5 C 23.234375 -49.101562 24.46875 -52.269531 25.5625 -55 C 26.65625 -57.726562 27.46875 -59.769531 28 -61.125 C 28.375 -62.09375 28.726562 -63.070312 29.0625 -64.0625 C 29.40625 -65.050781 29.726562 -66.101562 30.03125 -67.21875 Z M 36.75 -65.4375 "/></g></g></g></g></g></svg>