<svg xmlns="http://www.w3.org/2000/svg" xmlns:xlink="http://www.w3.org/1999/xlink" width="1080" zoomAndPan="magnify" viewBox="0 0 810 809.999993" height="1080" preserveAspectRatio="xMidYMid meet" version="1.0"><defs><g/><clipPath id="b1a2f69520"><rect x="0" width="101" y="0" height="134"/></clipPath><clipPath id="9dfee3ca5b"><rect x="0" width="112" y="0" height="139"/></clipPath><clipPath id="6324ca1426"><rect x="0" width="82" y="0" height="112"/></clipPath></defs><path stroke-linecap="butt" transform="matrix(0, 0.75, -0.75, 0, 186.957388, 185.271896)" fill="none" stroke-linejoin="miter" d="M 0.00205496 5.000476 L 589.11146 5.000476 " stroke="#000000" stroke-width="10" stroke-opacity="1" stroke-miterlimit="4"/><path stroke-linecap="butt" transform="matrix(0.75, -0.000000000000000093, 0.000000000000000093, 0.75, 183.207928, 181.521354)" fill="none" stroke-linejoin="miter" d="M -0.00119551 4.99757 L 598.785293 4.99757 " stroke="#000000" stroke-width="10" stroke-opacity="1" stroke-miterlimit="4"/><path stroke-linecap="butt" transform="matrix(0.75, -0.000000000000000186, 0.000000000000000186, 0.75, 179.457928, 623.354509)" fill="none" stroke-linejoin="miter" d="M -0.00119576 5.00128 L 598.785293 5.00128 " stroke="#000000" stroke-width="10" stroke-opacity="1" stroke-miterlimit="4"/><path stroke-linecap="butt" transform="matrix(0.408222, -0.62917, 0.62917, 0.408222, 523.545553, 628.079172)" fill="none" stroke-linejoin="miter" d="M -0.00298776 2.499888 L 258.250184 2.501585 " stroke="#000000" stroke-width="5" stroke-opacity="1" stroke-miterlimit="4"/><path stroke-linecap="butt" transform="matrix(-0.00338698, 0.749992, -0.749992, -0.00338698, 638.039155, 185.291084)" fill="none" stroke-linejoin="miter" d="M -0.000948346 5.000179 L 589.114475 5.001205 " stroke="#000000" stroke-width="10" stroke-opacity="1" stroke-miterlimit="4"/><path stroke-linecap="butt" transform="matrix(0.283759, 0.694248, -0.694248, 0.283759, 487.367331, 530.782793)" fill="none" stroke-linejoin="miter" d="M 0.00236917 1.998614 L 137.926625 1.999352 " stroke="#000000" stroke-width="4" stroke-opacity="1" stroke-miterlimit="4"/><path stroke-linecap="butt" transform="matrix(0.682904, -0.310069, 0.310069, 0.682904, 485.359611, 529.979945)" fill="none" stroke-linejoin="miter" d="M -0.000175014 2.002708 L 208.766456 1.999235 " stroke="#000000" stroke-width="4" stroke-opacity="1" stroke-miterlimit="4"/><g transform="matrix(1, 0, 0, 1, 223, 243)"><g clip-path="url(#b1a2f69520)"><g fill="#000000" fill-opacity="1"><g transform="translate(6.653788, 105.893637)"><g><path d="M 48.296875 -49.53125 L 43.875 -53.3125 C 45.070312 -54.144531 46.222656 -55.039062 47.328125 -56 C 48.441406 -56.96875 49.316406 -57.753906 49.953125 -58.359375 C 48.535156 -59.378906 46.671875 -60.476562 44.359375 -61.65625 C 42.054688 -62.84375 39.601562 -63.988281 37 -65.09375 C 34.40625 -66.195312 31.910156 -67.160156 29.515625 -67.984375 L 33.0625 -73.140625 C 35.46875 -72.296875 38.113281 -71.269531 41 -70.0625 C 43.894531 -68.851562 46.695312 -67.59375 49.40625 -66.28125 C 52.113281 -64.976562 54.367188 -63.703125 56.171875 -62.453125 L 58.046875 -58.125 C 57.398438 -57.46875 56.507812 -56.632812 55.375 -55.625 C 54.238281 -54.625 53.035156 -53.578125 51.765625 -52.484375 C 50.503906 -51.390625 49.347656 -50.40625 48.296875 -49.53125 Z M 30.046875 -1.359375 L 28.671875 -8.234375 C 31.003906 -7.753906 33.347656 -7.40625 35.703125 -7.1875 C 38.066406 -6.96875 40.722656 -6.953125 43.671875 -7.140625 C 45.085938 -7.222656 46.503906 -7.539062 47.921875 -8.09375 C 49.335938 -8.65625 50.503906 -9.535156 51.421875 -10.734375 C 52.335938 -11.941406 52.726562 -13.5625 52.59375 -15.59375 C 52.457031 -17.6875 51.664062 -19.90625 50.21875 -22.25 C 48.78125 -24.601562 47.070312 -26.90625 45.09375 -29.15625 C 43.125 -31.414062 41.222656 -33.414062 39.390625 -35.15625 C 38.335938 -36.132812 37.125 -37.195312 35.75 -38.34375 C 34.382812 -39.5 33.050781 -40.5625 31.75 -41.53125 L 36.46875 -46.171875 C 37.582031 -45.140625 38.742188 -44.0625 39.953125 -42.9375 C 41.171875 -41.8125 42.335938 -40.691406 43.453125 -39.578125 C 47.921875 -35.421875 51.640625 -31.363281 54.609375 -27.40625 C 57.585938 -23.457031 59.207031 -19.414062 59.46875 -15.28125 C 59.644531 -12.519531 59.296875 -10.242188 58.421875 -8.453125 C 57.546875 -6.671875 56.351562 -5.238281 54.84375 -4.15625 C 53.34375 -3.070312 51.726562 -2.285156 50 -1.796875 C 48.269531 -1.316406 46.632812 -1.03125 45.09375 -0.9375 C 42.082031 -0.738281 39.320312 -0.695312 36.8125 -0.8125 C 34.300781 -0.9375 32.046875 -1.117188 30.046875 -1.359375 Z M 87.75 -12.453125 L 81.859375 -8.84375 C 80.816406 -11.675781 79.363281 -14.8125 77.5 -18.25 C 75.644531 -21.6875 73.59375 -25.015625 71.34375 -28.234375 C 69.101562 -31.460938 66.832031 -34.179688 64.53125 -36.390625 L 69.875 -39.78125 C 72.175781 -37.457031 74.484375 -34.65625 76.796875 -31.375 C 79.109375 -28.09375 81.238281 -24.785156 83.1875 -21.453125 C 85.132812 -18.117188 86.65625 -15.117188 87.75 -12.453125 Z M 30.390625 -23.453125 C 28.722656 -21.492188 26.695312 -19.320312 24.3125 -16.9375 C 21.9375 -14.5625 19.367188 -12.203125 16.609375 -9.859375 C 13.847656 -7.515625 11.050781 -5.394531 8.21875 -3.5 L 3.984375 -8.6875 C 6.421875 -10.207031 9.050781 -12.109375 11.875 -14.390625 C 14.695312 -16.671875 17.390625 -19.035156 19.953125 -21.484375 C 22.523438 -23.929688 24.601562 -26.140625 26.1875 -28.109375 Z M 30.390625 -23.453125 "/></g></g></g></g></g><g transform="matrix(1, 0, 0, 1, 321, 276)"><g clip-path="url(#9dfee3ca5b)"><g fill="#000000" fill-opacity="1"><g transform="translate(17.793103, 111.508413)"><g><path d="M 46.203125 -78.46875 L 52.953125 -79.671875 C 53.035156 -78.890625 53.140625 -77.882812 53.265625 -76.65625 C 53.390625 -75.425781 53.535156 -74.363281 53.703125 -73.46875 C 54.003906 -71.445312 54.351562 -69.328125 54.75 -67.109375 C 55.144531 -64.890625 55.492188 -62.765625 55.796875 -60.734375 C 57.660156 -61.253906 59.4375 -61.726562 61.125 -62.15625 C 62.820312 -62.582031 64.410156 -62.957031 65.890625 -63.28125 C 67.054688 -63.539062 68.195312 -63.800781 69.3125 -64.0625 C 70.425781 -64.320312 71.453125 -64.570312 72.390625 -64.8125 L 73.546875 -58.421875 C 72.878906 -58.347656 71.894531 -58.195312 70.59375 -57.96875 C 69.289062 -57.738281 68.078125 -57.523438 66.953125 -57.328125 C 65.597656 -57.023438 64.054688 -56.671875 62.328125 -56.265625 C 60.597656 -55.867188 58.707031 -55.425781 56.65625 -54.9375 C 56.957031 -52.851562 57.273438 -50.617188 57.609375 -48.234375 C 57.941406 -45.847656 58.207031 -43.585938 58.40625 -41.453125 C 58.601562 -39.328125 58.679688 -37.523438 58.640625 -36.046875 C 58.617188 -34.148438 58.164062 -32.753906 57.28125 -31.859375 C 56.40625 -30.972656 54.992188 -30.359375 53.046875 -30.015625 C 51.972656 -29.816406 50.664062 -29.648438 49.125 -29.515625 C 47.59375 -29.390625 46.125 -29.3125 44.71875 -29.28125 C 43.320312 -29.257812 42.226562 -29.238281 41.4375 -29.21875 L 40.59375 -34.9375 C 42.207031 -34.84375 43.863281 -34.84375 45.5625 -34.9375 C 47.257812 -35.03125 48.640625 -35.171875 49.703125 -35.359375 C 50.816406 -35.554688 51.597656 -35.847656 52.046875 -36.234375 C 52.492188 -36.628906 52.691406 -37.34375 52.640625 -38.375 C 52.671875 -39.894531 52.507812 -42.078125 52.15625 -44.921875 C 51.800781 -47.765625 51.394531 -50.640625 50.9375 -53.546875 C 46.457031 -52.316406 41.722656 -51.023438 36.734375 -49.671875 C 31.742188 -48.328125 27.039062 -47.019531 22.625 -45.75 C 23.175781 -42.664062 23.710938 -39.660156 24.234375 -36.734375 C 24.753906 -33.804688 25.21875 -31.203125 25.625 -28.921875 C 26.039062 -26.640625 26.378906 -24.9375 26.640625 -23.8125 C 27.140625 -21.394531 27.65625 -19.363281 28.1875 -17.71875 C 28.71875 -16.070312 29.53125 -14.828125 30.625 -13.984375 C 31.726562 -13.148438 33.390625 -12.6875 35.609375 -12.59375 C 37.828125 -12.5 40.890625 -12.800781 44.796875 -13.5 C 48.054688 -14.082031 51.328125 -14.753906 54.609375 -15.515625 C 57.898438 -16.285156 60.953125 -17.09375 63.765625 -17.9375 C 66.578125 -18.78125 68.875 -19.515625 70.65625 -20.140625 L 71.5625 -13.40625 C 69.644531 -12.894531 67.285156 -12.265625 64.484375 -11.515625 C 61.679688 -10.765625 58.695312 -10.015625 55.53125 -9.265625 C 52.375 -8.523438 49.28125 -7.882812 46.25 -7.34375 C 41.28125 -6.445312 37.269531 -6.0625 34.21875 -6.1875 C 31.175781 -6.320312 28.800781 -6.96875 27.09375 -8.125 C 25.382812 -9.289062 24.082031 -11.015625 23.1875 -13.296875 C 22.300781 -15.578125 21.488281 -18.425781 20.75 -21.84375 C 20.519531 -23.144531 20.179688 -24.960938 19.734375 -27.296875 C 19.285156 -29.640625 18.800781 -32.273438 18.28125 -35.203125 C 17.757812 -38.128906 17.234375 -41.078125 16.703125 -44.046875 C 14.722656 -43.441406 12.890625 -42.882812 11.203125 -42.375 C 9.523438 -41.875 8.113281 -41.453125 6.96875 -41.109375 C 5.632812 -40.691406 4.1875 -40.234375 2.625 -39.734375 C 1.0625 -39.242188 -0.289062 -38.804688 -1.4375 -38.421875 L -3.328125 -44.859375 C -1.972656 -45.097656 -0.535156 -45.398438 0.984375 -45.765625 C 2.515625 -46.140625 4.007812 -46.515625 5.46875 -46.890625 C 6.632812 -47.234375 8.085938 -47.632812 9.828125 -48.09375 C 11.578125 -48.550781 13.53125 -49.097656 15.6875 -49.734375 L 13.484375 -62.53125 C 13.265625 -63.78125 13.03125 -64.929688 12.78125 -65.984375 C 12.53125 -67.046875 12.171875 -68.207031 11.703125 -69.46875 L 18.71875 -70.71875 C 18.757812 -69.738281 18.859375 -68.664062 19.015625 -67.5 C 19.171875 -66.34375 19.359375 -65.144531 19.578125 -63.90625 L 21.703125 -51.4375 C 26.015625 -52.644531 30.628906 -53.929688 35.546875 -55.296875 C 40.460938 -56.660156 45.285156 -57.976562 50.015625 -59.25 C 49.679688 -61.382812 49.304688 -63.609375 48.890625 -65.921875 C 48.484375 -68.234375 48.117188 -70.3125 47.796875 -72.15625 C 47.609375 -73.15625 47.363281 -74.269531 47.0625 -75.5 C 46.757812 -76.726562 46.472656 -77.71875 46.203125 -78.46875 Z M 46.203125 -78.46875 "/></g></g></g></g></g><g transform="matrix(1, 0, 0, 1, 442, 288)"><g clip-path="url(#6324ca1426)"><g fill="#000000" fill-opacity="1"><g transform="translate(0.444141, 87.483617)"><g><path d="M 44.25 -60.609375 C 43.5 -59.640625 42.640625 -58.347656 41.671875 -56.734375 C 40.804688 -55.390625 39.703125 -53.550781 38.359375 -51.21875 C 37.015625 -48.882812 35.585938 -46.359375 34.078125 -43.640625 C 32.578125 -40.929688 31.113281 -38.269531 29.6875 -35.65625 C 28.269531 -33.050781 27.023438 -30.753906 25.953125 -28.765625 C 27.992188 -30.648438 30.035156 -31.992188 32.078125 -32.796875 C 34.117188 -33.609375 36.132812 -34.015625 38.125 -34.015625 C 40.75 -34.015625 42.9375 -33.191406 44.6875 -31.546875 C 46.4375 -29.910156 47.363281 -27.535156 47.46875 -24.421875 C 47.570312 -21.953125 47.625 -19.332031 47.625 -16.5625 C 47.625 -13.789062 47.679688 -11.410156 47.796875 -9.421875 C 47.898438 -7.378906 48.566406 -5.890625 49.796875 -4.953125 C 51.035156 -4.015625 52.570312 -3.546875 54.40625 -3.546875 C 56.707031 -3.546875 58.769531 -4.160156 60.59375 -5.390625 C 62.425781 -6.628906 64.023438 -8.226562 65.390625 -10.1875 C 66.765625 -12.15625 67.921875 -14.28125 68.859375 -16.5625 C 69.804688 -18.84375 70.546875 -21.003906 71.078125 -23.046875 L 75.84375 -19.265625 C 74.445312 -15.015625 72.738281 -11.265625 70.71875 -8.015625 C 68.707031 -4.765625 66.289062 -2.222656 63.46875 -0.390625 C 60.644531 1.429688 57.328125 2.34375 53.515625 2.34375 C 50.722656 2.34375 48.519531 1.832031 46.90625 0.8125 C 45.289062 -0.207031 44.132812 -1.484375 43.4375 -3.015625 C 42.738281 -4.546875 42.335938 -6.066406 42.234375 -7.578125 C 42.117188 -9.941406 42.0625 -12.53125 42.0625 -15.34375 C 42.0625 -18.164062 42.007812 -20.707031 41.90625 -22.96875 C 41.851562 -24.789062 41.300781 -26.195312 40.25 -27.1875 C 39.207031 -28.1875 37.742188 -28.6875 35.859375 -28.6875 C 33.660156 -28.6875 31.539062 -28.054688 29.5 -26.796875 C 27.457031 -25.535156 25.613281 -23.910156 23.96875 -21.921875 C 22.332031 -19.929688 20.976562 -17.890625 19.90625 -15.796875 C 19.3125 -14.609375 18.664062 -13.179688 17.96875 -11.515625 C 17.269531 -9.859375 16.582031 -8.15625 15.90625 -6.40625 C 15.238281 -4.65625 14.632812 -3 14.09375 -1.4375 C 13.5625 0.113281 13.160156 1.375 12.890625 2.34375 L 6.6875 0.234375 C 7.65625 -2.441406 8.914062 -5.523438 10.46875 -9.015625 C 12.03125 -12.515625 13.75 -16.210938 15.625 -20.109375 C 17.507812 -24.003906 19.445312 -27.867188 21.4375 -31.703125 C 23.425781 -35.546875 25.316406 -39.175781 27.109375 -42.59375 C 28.910156 -46.007812 30.507812 -49.003906 31.90625 -51.578125 C 33.3125 -54.160156 34.363281 -56.09375 35.0625 -57.375 C 35.539062 -58.289062 36.007812 -59.21875 36.46875 -60.15625 C 36.925781 -61.101562 37.367188 -62.113281 37.796875 -63.1875 Z M 44.25 -60.609375 "/></g></g></g></g></g></svg>