<svg xmlns="http://www.w3.org/2000/svg" xmlns:xlink="http://www.w3.org/1999/xlink" width="1080" zoomAndPan="magnify" viewBox="0 0 810 809.999993" height="1080" preserveAspectRatio="xMidYMid meet" version="1.0"><defs><clipPath id="bf4169acd5"><path d="M 123.945312 299.289062 L 205.363281 299.289062 L 205.363281 380.710938 L 123.945312 380.710938 Z M 123.945312 299.289062 " clip-rule="nonzero"/></clipPath><clipPath id="1a0861f8e8"><path d="M 164.65625 299.289062 L 172.558594 310.507812 L 185.011719 304.742188 L 186.246094 318.410156 L 199.910156 319.644531 L 194.148438 332.097656 L 205.363281 340 L 194.148438 347.902344 L 199.910156 360.355469 L 186.246094 361.589844 L 185.011719 375.257812 L 172.558594 369.492188 L 164.65625 380.710938 L 156.753906 369.492188 L 144.300781 375.257812 L 143.066406 361.589844 L 129.398438 360.355469 L 135.164062 347.902344 L 123.945312 340 L 135.164062 332.097656 L 129.398438 319.644531 L 143.066406 318.410156 L 144.300781 304.742188 L 156.753906 310.507812 Z M 164.65625 299.289062 " clip-rule="nonzero"/></clipPath><clipPath id="b85c9dc494"><path d="M 0.945312 0.289062 L 82.363281 0.289062 L 82.363281 81.710938 L 0.945312 81.710938 Z M 0.945312 0.289062 " clip-rule="nonzero"/></clipPath><clipPath id="a419fd512b"><path d="M 41.65625 0.289062 L 49.558594 11.507812 L 62.011719 5.742188 L 63.246094 19.410156 L 76.910156 20.644531 L 71.148438 33.097656 L 82.363281 41 L 71.148438 48.902344 L 76.910156 61.355469 L 63.246094 62.589844 L 62.011719 76.257812 L 49.558594 70.492188 L 41.65625 81.710938 L 33.753906 70.492188 L 21.300781 76.257812 L 20.066406 62.589844 L 6.398438 61.355469 L 12.164062 48.902344 L 0.945312 41 L 12.164062 33.097656 L 6.398438 20.644531 L 20.066406 19.410156 L 21.300781 5.742188 L 33.753906 11.507812 Z M 41.65625 0.289062 " clip-rule="nonzero"/></clipPath><clipPath id="0533328067"><rect x="0" width="83" y="0" height="82"/></clipPath><clipPath id="05e0c60607"><path d="M 209 261 L 281 261 L 281 334 L 209 334 Z M 209 261 " clip-rule="nonzero"/></clipPath><clipPath id="dc8ff358ed"><path d="M 216.1875 255.011719 L 287.207031 268.980469 L 273.234375 340 L 202.21875 326.03125 Z M 216.1875 255.011719 " clip-rule="nonzero"/></clipPath><clipPath id="28bf7265e4"><path d="M 251.695312 261.996094 L 259.742188 274.90625 L 274.757812 277.335938 L 271.320312 292.15625 L 280.21875 304.492188 L 267.3125 312.539062 L 264.878906 327.554688 L 250.0625 324.117188 L 237.726562 333.015625 L 229.679688 320.105469 L 214.664062 317.675781 L 218.101562 302.859375 L 209.203125 290.519531 L 222.109375 282.476562 L 224.542969 267.457031 L 239.359375 270.898438 Z M 251.695312 261.996094 " clip-rule="nonzero"/></clipPath><clipPath id="38f4b340b7"><path d="M 0.0390625 0.839844 L 71.320312 0.839844 L 71.320312 72.121094 L 0.0390625 72.121094 Z M 0.0390625 0.839844 " clip-rule="nonzero"/></clipPath><clipPath id="2d9883e215"><path d="M 7.1875 -5.988281 L 78.207031 7.980469 L 64.234375 79 L -6.78125 65.03125 Z M 7.1875 -5.988281 " clip-rule="nonzero"/></clipPath><clipPath id="5badb1bddd"><path d="M 42.695312 0.996094 L 50.742188 13.90625 L 65.757812 16.335938 L 62.320312 31.15625 L 71.21875 43.492188 L 58.3125 51.539062 L 55.878906 66.554688 L 41.0625 63.117188 L 28.726562 72.015625 L 20.679688 59.105469 L 5.664062 56.675781 L 9.101562 41.859375 L 0.203125 29.519531 L 13.109375 21.476562 L 15.542969 6.457031 L 30.359375 9.898438 Z M 42.695312 0.996094 " clip-rule="nonzero"/></clipPath><clipPath id="f3a1f83bc2"><rect x="0" width="72" y="0" height="73"/></clipPath></defs><path stroke-linecap="butt" transform="matrix(0.71717, 0.219469, -0.219469, 0.71717, 265.560986, 225.475907)" fill="none" stroke-linejoin="miter" d="M -0.000429798 13.999204 L 435.178603 13.998278 " stroke="#cc0000" stroke-width="28" stroke-opacity="1" stroke-miterlimit="4"/><path stroke-linecap="butt" transform="matrix(0.71717, 0.219469, -0.219469, 0.71717, 330.031422, 165.465729)" fill="none" stroke-linejoin="miter" d="M -0.00165648 14.002877 L 317.652796 14.002062 " stroke="#cc0000" stroke-width="28" stroke-opacity="1" stroke-miterlimit="4"/><path stroke-linecap="butt" transform="matrix(0.548979, -0.511001, 0.511001, 0.548979, 255.332979, 227.825809)" fill="none" stroke-linejoin="miter" d="M 0.00107547 14.00137 L 117.437601 13.998543 " stroke="#cc0000" stroke-width="28" stroke-opacity="1" stroke-miterlimit="4"/><path stroke-linecap="butt" transform="matrix(0.168779, 0.730762, -0.730762, 0.168779, 564.996239, 242.860892)" fill="none" stroke-linejoin="miter" d="M -0.00147035 13.999581 L 117.416189 14.001304 " stroke="#cc0000" stroke-width="28" stroke-opacity="1" stroke-miterlimit="4"/><path stroke-linecap="butt" transform="matrix(0.71717, 0.219469, -0.219469, 0.71717, 372.088168, 144.799172)" fill="none" stroke-linejoin="miter" d="M 0.000148809 14.000357 L 229.390065 13.999918 " stroke="#cc0000" stroke-width="28" stroke-opacity="1" stroke-miterlimit="4"/><path stroke-linecap="butt" transform="matrix(-0.219469, 0.71717, -0.71717, -0.219469, 385.347318, 137.346063)" fill="none" stroke-linejoin="miter" d="M -0.000717022 13.997906 L 28.677659 14.001878 " stroke="#cc0000" stroke-width="28" stroke-opacity="1" stroke-miterlimit="4"/><path stroke-linecap="butt" transform="matrix(0.71717, 0.219469, -0.219469, 0.71717, 378.110053, 125.121254)" fill="none" stroke-linejoin="miter" d="M 0.0014375 13.997495 L 229.386374 13.998581 " stroke="#cc0000" stroke-width="28" stroke-opacity="1" stroke-miterlimit="4"/><path stroke-linecap="butt" transform="matrix(-0.219469, 0.71717, -0.71717, -0.219469, 549.588144, 188.576744)" fill="none" stroke-linejoin="miter" d="M 0.00000578018 14.001233 L 27.439632 13.99757 " stroke="#cc0000" stroke-width="28" stroke-opacity="1" stroke-miterlimit="4"/><path stroke-linecap="butt" transform="matrix(0.000000001309, 0.75, -0.75, 0.000000001309, 554.58384, 355.88051)" fill="none" stroke-linejoin="miter" d="M -0.00213849 14.002412 L 182.815579 14.002412 " stroke="#cc0000" stroke-width="28" stroke-opacity="1" stroke-miterlimit="4"/><path stroke-linecap="butt" transform="matrix(0.75, 0, 0, 0.75, 262.136328, 355.879279)" fill="none" stroke-linejoin="miter" d="M 14.000522 -0.000496862 L 14.000522 250.749516 C 14.000522 280.020351 37.72969 303.749518 67.000524 303.749518 L 322.932829 303.749518 C 352.203664 303.749518 375.932832 280.020351 375.932832 250.749516 L 375.932832 182.817221 " stroke="#cc0000" stroke-width="28" stroke-opacity="1" stroke-miterlimit="4"/><path stroke-linecap="butt" transform="matrix(0, 0.75, -0.75, 0, 368.745777, 378.464533)" fill="none" stroke-linejoin="miter" d="M 0.000414387 13.999578 L 228.271259 13.999578 " stroke="#cc0000" stroke-width="28" stroke-opacity="1" stroke-miterlimit="4"/><path stroke-linecap="butt" transform="matrix(0.000000001309, 0.75, -0.75, 0.000000001309, 461.745748, 378.464533)" fill="none" stroke-linejoin="miter" d="M 0.000414362 13.99954 L 228.271259 13.99954 " stroke="#cc0000" stroke-width="28" stroke-opacity="1" stroke-miterlimit="4"/><path stroke-linecap="butt" transform="matrix(0.75, 0, 0, 0.75, 244.711544, 342.37928)" fill="none" stroke-linejoin="miter" d="M -0.000808652 17.999503 L 439.832547 17.999503 " stroke="#cc0000" stroke-width="36" stroke-opacity="1" stroke-miterlimit="4"/><g clip-path="url(#bf4169acd5)"><g clip-path="url(#1a0861f8e8)"><g transform="matrix(1, 0, 0, 1, 123, 299)"><g clip-path="url(#0533328067)"><g clip-path="url(#b85c9dc494)"><g clip-path="url(#a419fd512b)"><path fill="#cc0000" d="M 0.945312 0.289062 L 82.363281 0.289062 L 82.363281 81.710938 L 0.945312 81.710938 Z M 0.945312 0.289062 " fill-opacity="1" fill-rule="nonzero"/></g></g></g></g></g></g><g clip-path="url(#05e0c60607)"><g clip-path="url(#dc8ff358ed)"><g clip-path="url(#28bf7265e4)"><g transform="matrix(1, 0, 0, 1, 209, 261)"><g clip-path="url(#f3a1f83bc2)"><g clip-path="url(#38f4b340b7)"><g clip-path="url(#2d9883e215)"><g clip-path="url(#5badb1bddd)"><path fill="#cc0000" d="M 7.1875 -5.988281 L 78.207031 7.980469 L 64.234375 79 L -6.78125 65.03125 Z M 7.1875 -5.988281 " fill-opacity="1" fill-rule="nonzero"/></g></g></g></g></g></g></g></g><path stroke-linecap="butt" transform="matrix(0.746556, -0.071789, 0.071789, 0.746556, 14.206132, 268.657974)" fill="none" stroke-linejoin="miter" d="M 6.57097 48.557959 C 93.296275 2.480949 180.022689 2.480195 266.754896 48.561378 " stroke="#cc0000" stroke-width="28" stroke-opacity="1" stroke-miterlimit="4"/><path stroke-linecap="butt" transform="matrix(0.570081, -0.487348, 0.487348, 0.570081, 6.708563, 411.747983)" fill="none" stroke-linejoin="miter" d="M 3.264607 28.784381 C 84.443029 12.407202 138.022074 12.404302 163.994972 28.783598 " stroke="#cc0000" stroke-width="33" stroke-opacity="1" stroke-miterlimit="4"/></svg>