<svg xmlns="http://www.w3.org/2000/svg" xmlns:xlink="http://www.w3.org/1999/xlink" width="1080" zoomAndPan="magnify" viewBox="0 0 810 809.999993" height="1080" preserveAspectRatio="xMidYMid meet" version="1.0"><path stroke-linecap="butt" transform="matrix(0.75, -0.000000000000000093, 0.000000000000000093, 0.75, 241.807448, 312.847562)" fill="none" stroke-linejoin="miter" d="M 0.00152749 14.000127 L 435.178633 14.000127 " stroke="#cc0000" stroke-width="28" stroke-opacity="1" stroke-miterlimit="4"/><path stroke-linecap="butt" transform="matrix(0.75, 0, 0, 0.75, 285.895273, 236.598231)" fill="none" stroke-linejoin="miter" d="M -0.000989156 13.999234 L 317.650068 13.999234 " stroke="#cc0000" stroke-width="28" stroke-opacity="1" stroke-miterlimit="4"/><path stroke-linecap="butt" transform="matrix(0.375417, -0.649278, 0.649278, 0.375417, 232.714708, 318.086781)" fill="none" stroke-linejoin="miter" d="M -0.00125825 14.000855 L 117.435312 13.998251 " stroke="#cc0000" stroke-width="28" stroke-opacity="1" stroke-miterlimit="4"/><path stroke-linecap="butt" transform="matrix(0.375231, 0.649385, -0.649385, 0.375231, 533.222785, 241.848713)" fill="none" stroke-linejoin="miter" d="M 0.000501891 13.998097 L 117.418825 13.998757 " stroke="#cc0000" stroke-width="28" stroke-opacity="1" stroke-miterlimit="4"/><path stroke-linecap="butt" transform="matrix(0.75, 0, 0, 0.75, 320.063455, 204.529097)" fill="none" stroke-linejoin="miter" d="M -0.0012728 13.997663 L 229.389364 13.997663 " stroke="#cc0000" stroke-width="28" stroke-opacity="1" stroke-miterlimit="4"/><path stroke-linecap="butt" transform="matrix(0.000000001309, 0.75, -0.75, 0.000000001309, 330.561373, 193.52311)" fill="none" stroke-linejoin="miter" d="M 0.00043629 13.998498 L 28.677521 13.998498 " stroke="#cc0000" stroke-width="28" stroke-opacity="1" stroke-miterlimit="4"/><path stroke-linecap="butt" transform="matrix(0.75, 0, 0, 0.75, 320.063455, 183.950401)" fill="none" stroke-linejoin="miter" d="M -0.0012728 13.998424 L 229.389364 13.998424 " stroke="#cc0000" stroke-width="28" stroke-opacity="1" stroke-miterlimit="4"/><path stroke-linecap="butt" transform="matrix(0, 0.75, -0.75, 0, 502.604402, 194.450693)" fill="none" stroke-linejoin="miter" d="M -0.00196622 13.998579 L 27.440743 13.998579 " stroke="#cc0000" stroke-width="28" stroke-opacity="1" stroke-miterlimit="4"/><path stroke-linecap="butt" transform="matrix(0, 0.75, -0.75, 0, 554.5836, 323.349028)" fill="none" stroke-linejoin="miter" d="M -0.00182864 14.002092 L 226.190891 14.002092 " stroke="#cc0000" stroke-width="28" stroke-opacity="1" stroke-miterlimit="4"/><path stroke-linecap="butt" transform="matrix(0.75, 0, 0, 0.75, 262.136328, 355.879279)" fill="none" stroke-linejoin="miter" d="M 14.000522 -0.000496862 L 14.000522 250.749516 C 14.000522 280.020351 37.72969 303.749518 67.000524 303.749518 L 322.932829 303.749518 C 352.203664 303.749518 375.932832 280.020351 375.932832 250.749516 L 375.932832 182.817221 " stroke="#cc0000" stroke-width="28" stroke-opacity="1" stroke-miterlimit="4"/><path stroke-linecap="butt" transform="matrix(0, 0.75, -0.75, 0, 368.745777, 378.464533)" fill="none" stroke-linejoin="miter" d="M 0.000414387 13.999578 L 228.271259 13.999578 " stroke="#cc0000" stroke-width="28" stroke-opacity="1" stroke-miterlimit="4"/><path stroke-linecap="butt" transform="matrix(0.000000001309, 0.75, -0.75, 0.000000001309, 461.745748, 378.464533)" fill="none" stroke-linejoin="miter" d="M 0.000414362 13.99954 L 228.271259 13.99954 " stroke="#cc0000" stroke-width="28" stroke-opacity="1" stroke-miterlimit="4"/></svg>