<svg xmlns="http://www.w3.org/2000/svg" xmlns:xlink="http://www.w3.org/1999/xlink" width="1080" zoomAndPan="magnify" viewBox="0 0 810 809.999993" height="1080" preserveAspectRatio="xMidYMid meet" version="1.0"><path stroke-linecap="butt" transform="matrix(0.75, 0, 0, 0.75, 207.366365, 275.409733)" fill="none" stroke-linejoin="miter" d="M 534.563623 0.000563874 L 534.563623 416.604751 C 534.563623 429.85996 523.818831 440.604753 510.563622 440.604753 L 0.00109658 440.604753 " stroke="#ffffff" stroke-width="28" stroke-opacity="1" stroke-miterlimit="4"/><path stroke-linecap="butt" transform="matrix(0.75, 0, 0, 0.75, 162.063936, 156.379906)" fill="none" stroke-linejoin="miter" d="M 447.039774 13.998668 L 37.998087 13.998668 C 24.742878 13.998668 13.998086 24.74346 13.998086 37.998669 L 13.998086 576.108071 C 13.998086 588.92578 24.388711 599.311198 37.201212 599.311198 L 60.404338 599.311198 " stroke="#ffffff" stroke-width="28" stroke-opacity="1" stroke-miterlimit="4"/><path stroke-linecap="butt" transform="matrix(0.536139, 0.524456, -0.524456, 0.536139, 504.685826, 159.374002)" fill="none" stroke-linejoin="miter" d="M -0.00067553 13.99871 L 206.936343 14.002062 " stroke="#ffffff" stroke-width="28" stroke-opacity="1" stroke-miterlimit="4"/><path stroke-linecap="butt" transform="matrix(0.75, 0, 0, 0.75, 232.50304, 166.879905)" fill="none" stroke-linejoin="miter" d="M 14.001156 -0.00133194 L 14.001156 152.024717 C 14.001156 165.279926 24.745948 176.024719 38.001157 176.024719 L 329.120963 176.024719 C 342.376172 176.024719 353.120965 165.279926 353.120965 152.024717 L 353.120965 -0.00133194 " stroke="#ffffff" stroke-width="28" stroke-opacity="1" stroke-miterlimit="4"/><path stroke-linecap="butt" transform="matrix(0.75, 0, 0, 0.75, 207.366365, 347.526828)" fill="none" stroke-linejoin="miter" d="M 0.00109658 344.448622 L 11.881306 344.448622 C 15.027139 344.448622 18.053181 343.198621 20.277139 340.969455 C 22.506306 338.740288 23.756306 335.719454 23.756306 332.568413 L 23.756306 38.000689 C 23.756306 24.74548 34.501098 14.000688 47.756307 14.000688 L 442.547994 14.000688 C 455.803203 14.000688 466.547995 24.74548 466.547995 38.000689 L 466.547995 329.328829 C 466.547995 333.339246 468.141745 337.188204 470.975079 340.021538 C 473.81362 342.854871 477.657371 344.448622 481.667787 344.448622 L 496.78758 344.448622 " stroke="#ffffff" stroke-width="28" stroke-opacity="1" stroke-miterlimit="4"/><path stroke-linecap="butt" transform="matrix(0.75, 0, 0, 0.75, 262.441221, 420.417575)" fill="none" stroke-linejoin="miter" d="M 0.000246337 14.000526 L 345.599222 14.000526 " stroke="#ffffff" stroke-width="28" stroke-opacity="1" stroke-miterlimit="4"/><path stroke-linecap="butt" transform="matrix(0.75, 0, 0, 0.75, 262.441221, 474.533612)" fill="none" stroke-linejoin="miter" d="M 0.000246337 14.00206 L 345.599222 14.00206 " stroke="#ffffff" stroke-width="28" stroke-opacity="1" stroke-miterlimit="4"/><path stroke-linecap="butt" transform="matrix(0.75, 0, 0, 0.75, 262.441221, 528.533609)" fill="none" stroke-linejoin="miter" d="M 0.000246337 14.002063 L 345.599222 14.002063 " stroke="#ffffff" stroke-width="28" stroke-opacity="1" stroke-miterlimit="4"/></svg>