<svg xmlns="http://www.w3.org/2000/svg" xmlns:xlink="http://www.w3.org/1999/xlink" width="1080" zoomAndPan="magnify" viewBox="0 0 810 809.999993" height="1080" preserveAspectRatio="xMidYMid meet" version="1.0"><defs><g/><clipPath id="7d73fb6bc1"><path d="M 0 62 L 382 62 L 382 411 L 0 411 Z M 0 62 " clip-rule="nonzero"/></clipPath><clipPath id="9f59b6b7b5"><rect x="0" width="418" y="0" height="516"/></clipPath><clipPath id="f1ffe55786"><rect x="0" width="366" y="0" height="452"/></clipPath><clipPath id="87ae34de82"><rect x="0" width="262" y="0" height="336"/></clipPath></defs><path stroke-linecap="butt" transform="matrix(0.0905075, 0.744519, -0.744519, 0.0905075, 165.904786, 203.027909)" fill="none" stroke-linejoin="miter" d="M 0.000255206 4.998147 L 589.112452 5.00172 " stroke="#4910bc" stroke-width="10" stroke-opacity="1" stroke-miterlimit="4"/><path stroke-linecap="butt" transform="matrix(0.744519, -0.0905075, 0.0905075, 0.744519, 161.730142, 199.75712)" fill="none" stroke-linejoin="miter" d="M 0.00108901 5.001146 L 598.783513 4.999778 " stroke="#4910bc" stroke-width="10" stroke-opacity="1" stroke-miterlimit="4"/><path stroke-linecap="butt" transform="matrix(0.744519, -0.0905075, 0.0905075, 0.744519, 211.326482, 638.813844)" fill="none" stroke-linejoin="miter" d="M -0.00201229 4.998034 L 598.784953 5.002464 " stroke="#4910bc" stroke-width="10" stroke-opacity="1" stroke-miterlimit="4"/><path stroke-linecap="butt" transform="matrix(0.329313, -0.673835, 0.673835, 0.329313, 545.720544, 598.193726)" fill="none" stroke-linejoin="miter" d="M -0.00179842 13.998084 L 258.251387 13.999223 " stroke="#561269" stroke-width="28" stroke-opacity="1" stroke-miterlimit="4"/><path stroke-linecap="butt" transform="matrix(0.0871443, 0.74492, -0.74492, 0.0871443, 613.692333, 148.611634)" fill="none" stroke-linejoin="miter" d="M -0.000479134 4.998578 L 589.114483 5.001391 " stroke="#8c52ff" stroke-width="10" stroke-opacity="1" stroke-miterlimit="4"/><path stroke-linecap="butt" transform="matrix(0.365465, 0.654932, -0.654932, 0.365465, 513.673514, 505.375435)" fill="none" stroke-linejoin="miter" d="M -0.0000788323 14.000817 L 137.92783 13.997193 " stroke="#561269" stroke-width="28" stroke-opacity="1" stroke-miterlimit="4"/><path stroke-linecap="butt" transform="matrix(0.640495, -0.390213, 0.390213, 0.640495, 499.04189, 501.520075)" fill="none" stroke-linejoin="miter" d="M -0.00199065 14.000784 L 208.766594 13.999873 " stroke="#561269" stroke-width="28" stroke-opacity="1" stroke-miterlimit="4"/><g transform="matrix(1, 0, 0, 1, 0, 0.000000000000039746)"><g clip-path="url(#9f59b6b7b5)"><g clip-path="url(#7d73fb6bc1)"><g fill="#000000" fill-opacity="1"><g transform="translate(32.229211, 406.153887)"><g><path d="M 168.125 -220.359375 L 148.71875 -233.3125 C 153.039062 -237.132812 157.175781 -241.234375 161.125 -245.609375 C 165.082031 -249.992188 168.191406 -253.535156 170.453125 -256.234375 C 164.296875 -259.597656 156.351562 -263.070312 146.625 -266.65625 C 136.90625 -270.25 126.601562 -273.601562 115.71875 -276.71875 C 104.832031 -279.84375 94.410156 -282.488281 84.453125 -284.65625 L 96.15625 -306.84375 C 106.101562 -304.664062 117.113281 -301.875 129.1875 -298.46875 C 141.257812 -295.070312 153.003906 -291.425781 164.421875 -287.53125 C 175.835938 -283.632812 185.445312 -279.644531 193.25 -275.5625 L 202.703125 -259.234375 C 200.484375 -256.304688 197.34375 -252.578125 193.28125 -248.046875 C 189.226562 -243.515625 184.96875 -238.753906 180.5 -233.765625 C 176.03125 -228.785156 171.90625 -224.316406 168.125 -220.359375 Z M 118.828125 -19.9375 L 110.078125 -46.59375 C 119.523438 -45.84375 129 -45.597656 138.5 -45.859375 C 148 -46.128906 158.582031 -47.351562 170.25 -49.53125 C 175.820312 -50.570312 181.289062 -52.535156 186.65625 -55.421875 C 192.03125 -58.316406 196.242188 -62.375 199.296875 -67.59375 C 202.347656 -72.820312 203.125 -79.445312 201.625 -87.46875 C 200.082031 -95.71875 195.859375 -104.160156 188.953125 -112.796875 C 182.054688 -121.441406 174.148438 -129.769531 165.234375 -137.78125 C 156.328125 -145.800781 147.796875 -152.820312 139.640625 -158.84375 C 134.972656 -162.238281 129.632812 -165.890625 123.625 -169.796875 C 117.625 -173.703125 111.8125 -177.265625 106.1875 -180.484375 L 122.65625 -201.28125 C 127.59375 -197.675781 132.75 -193.925781 138.125 -190.03125 C 143.507812 -186.132812 148.703125 -182.265625 153.703125 -178.421875 C 173.484375 -164.023438 190.238281 -149.6875 203.96875 -135.40625 C 217.707031 -121.125 226.097656 -105.847656 229.140625 -89.578125 C 231.179688 -78.640625 230.894531 -69.410156 228.28125 -61.890625 C 225.664062 -54.367188 221.617188 -48.082031 216.140625 -43.03125 C 210.671875 -37.988281 204.609375 -34.085938 197.953125 -31.328125 C 191.304688 -28.578125 184.945312 -26.632812 178.875 -25.5 C 166.96875 -23.28125 155.992188 -21.796875 145.953125 -21.046875 C 135.910156 -20.304688 126.867188 -19.9375 118.828125 -19.9375 Z M 342.921875 -92 L 321.28125 -74.734375 C 315.738281 -85.515625 308.441406 -97.289062 299.390625 -110.0625 C 290.347656 -122.832031 280.582031 -135.082031 270.09375 -146.8125 C 259.601562 -158.550781 249.242188 -168.242188 239.015625 -175.890625 L 258.625 -192 C 268.945312 -183.875 279.5 -173.84375 290.28125 -161.90625 C 301.0625 -149.96875 311.125 -137.828125 320.46875 -125.484375 C 329.8125 -113.148438 337.296875 -101.988281 342.921875 -92 Z M 109.546875 -107.953125 C 103.867188 -99.347656 96.867188 -89.738281 88.546875 -79.125 C 80.222656 -68.519531 71.144531 -57.898438 61.3125 -47.265625 C 51.488281 -36.640625 41.378906 -26.835938 30.984375 -17.859375 L 11.640625 -36.484375 C 20.617188 -43.691406 30.164062 -52.515625 40.28125 -62.953125 C 50.394531 -73.398438 59.953125 -84.113281 68.953125 -95.09375 C 77.960938 -106.082031 85.191406 -115.851562 90.640625 -124.40625 Z M 109.546875 -107.953125 "/></g></g></g></g></g></g><g transform="matrix(1, 0, 0, 1, 203, 168)"><g clip-path="url(#f1ffe55786)"><g fill="#000000" fill-opacity="1"><g transform="translate(62.394579, 365.382035)"><g><path d="M 144.015625 -256.609375 L 165.75 -260.953125 C 166.050781 -258.441406 166.453125 -255.203125 166.953125 -251.234375 C 167.453125 -247.273438 167.984375 -243.863281 168.546875 -241 C 169.660156 -234.476562 170.929688 -227.644531 172.359375 -220.5 C 173.796875 -213.351562 175.0625 -206.519531 176.15625 -200 C 182.132812 -201.800781 187.851562 -203.441406 193.3125 -204.921875 C 198.769531 -206.398438 203.859375 -207.71875 208.578125 -208.875 C 212.359375 -209.832031 216.039062 -210.765625 219.625 -211.671875 C 223.207031 -212.585938 226.5 -213.445312 229.5 -214.25 L 233.625 -193.671875 C 231.488281 -193.429688 228.320312 -192.890625 224.125 -192.046875 C 219.9375 -191.210938 216.03125 -190.4375 212.40625 -189.71875 C 208.070312 -188.644531 203.117188 -187.398438 197.546875 -185.984375 C 191.984375 -184.578125 185.90625 -183.015625 179.3125 -181.296875 C 180.445312 -174.585938 181.632812 -167.390625 182.875 -159.703125 C 184.113281 -152.023438 185.125 -144.742188 185.90625 -137.859375 C 186.6875 -130.984375 187.0625 -125.164062 187.03125 -120.40625 C 187.070312 -114.257812 185.703125 -109.71875 182.921875 -106.78125 C 180.148438 -103.851562 175.617188 -101.757812 169.328125 -100.5 C 165.890625 -99.8125 161.691406 -99.21875 156.734375 -98.71875 C 151.773438 -98.226562 147.035156 -97.875 142.515625 -97.65625 C 138.003906 -97.445312 134.46875 -97.289062 131.90625 -97.1875 L 128.8125 -115.578125 C 134 -115.441406 139.332031 -115.570312 144.8125 -115.96875 C 150.289062 -116.363281 154.738281 -116.90625 158.15625 -117.59375 C 161.78125 -118.3125 164.304688 -119.304688 165.734375 -120.578125 C 167.160156 -121.859375 167.742188 -124.160156 167.484375 -127.484375 C 167.484375 -132.441406 166.8125 -139.492188 165.46875 -148.640625 C 164.132812 -157.796875 162.628906 -167.0625 160.953125 -176.4375 C 146.546875 -172.15625 131.332031 -167.671875 115.3125 -162.984375 C 99.300781 -158.304688 84.207031 -153.75 70.03125 -149.3125 C 72.007812 -139.40625 73.941406 -129.734375 75.828125 -120.296875 C 77.722656 -110.859375 79.40625 -102.46875 80.875 -95.125 C 82.34375 -87.789062 83.535156 -82.332031 84.453125 -78.75 C 86.203125 -70.976562 88 -64.453125 89.84375 -59.171875 C 91.695312 -53.890625 94.425781 -49.921875 98.03125 -47.265625 C 101.644531 -44.617188 107.03125 -43.21875 114.1875 -43.0625 C 121.351562 -42.914062 131.226562 -44.101562 143.8125 -46.625 C 154.289062 -48.71875 164.804688 -51.117188 175.359375 -53.828125 C 185.921875 -56.546875 195.722656 -59.351562 204.765625 -62.25 C 213.804688 -65.144531 221.1875 -67.65625 226.90625 -69.78125 L 230.328125 -48.171875 C 224.148438 -46.359375 216.566406 -44.148438 207.578125 -41.546875 C 198.585938 -38.941406 189 -36.320312 178.8125 -33.6875 C 168.632812 -31.0625 158.691406 -28.78125 148.984375 -26.84375 C 132.960938 -23.632812 120.019531 -22.132812 110.15625 -22.34375 C 100.300781 -22.550781 92.582031 -24.472656 87 -28.109375 C 81.414062 -31.753906 77.097656 -37.234375 74.046875 -44.546875 C 70.992188 -51.867188 68.171875 -61.019531 65.578125 -72 C 64.734375 -76.195312 63.507812 -82.046875 61.90625 -89.546875 C 60.3125 -97.054688 58.570312 -105.53125 56.6875 -114.96875 C 54.800781 -124.40625 52.898438 -133.890625 50.984375 -143.421875 C 44.660156 -141.367188 38.800781 -139.453125 33.40625 -137.671875 C 28.019531 -135.898438 23.453125 -134.441406 19.703125 -133.296875 C 15.441406 -131.847656 10.800781 -130.273438 5.78125 -128.578125 C 0.769531 -126.878906 -3.578125 -125.363281 -7.265625 -124.03125 L -13.796875 -144.734375 C -9.410156 -145.609375 -4.769531 -146.679688 0.125 -147.953125 C 5.019531 -149.234375 9.8125 -150.546875 14.5 -151.890625 C 18.238281 -153.023438 22.921875 -154.40625 28.546875 -156.03125 C 34.171875 -157.65625 40.429688 -159.550781 47.328125 -161.71875 L 39.375 -202.953125 C 38.570312 -206.953125 37.734375 -210.648438 36.859375 -214.046875 C 35.984375 -217.441406 34.742188 -221.160156 33.140625 -225.203125 L 55.71875 -229.71875 C 55.957031 -226.59375 56.351562 -223.148438 56.90625 -219.390625 C 57.457031 -215.640625 58.132812 -211.765625 58.9375 -207.765625 L 66.65625 -167.6875 C 80.5 -171.832031 95.316406 -176.28125 111.109375 -181.03125 C 126.910156 -185.78125 142.398438 -190.367188 157.578125 -194.796875 C 156.398438 -201.691406 155.066406 -208.851562 153.578125 -216.28125 C 152.085938 -223.71875 150.75 -230.390625 149.5625 -236.296875 C 148.914062 -239.546875 148.046875 -243.140625 146.953125 -247.078125 C 145.867188 -251.023438 144.890625 -254.203125 144.015625 -256.609375 Z M 144.015625 -256.609375 "/></g></g></g></g></g><g transform="matrix(1, 0, 0, 1, 312, 431)"><g clip-path="url(#87ae34de82)"><g fill="#000000" fill-opacity="1"><g transform="translate(29.672613, 267.924356)"><g><path d="M 102.375 -183.203125 C 100.613281 -180.253906 98.664062 -176.378906 96.53125 -171.578125 C 94.59375 -167.554688 92.15625 -162.078125 89.21875 -155.140625 C 86.28125 -148.203125 83.175781 -140.710938 79.90625 -132.671875 C 76.644531 -124.628906 73.476562 -116.742188 70.40625 -109.015625 C 67.332031 -101.296875 64.644531 -94.5 62.34375 -88.625 C 67.375 -94.550781 72.585938 -98.972656 77.984375 -101.890625 C 83.378906 -104.816406 88.835938 -106.613281 94.359375 -107.28125 C 101.671875 -108.175781 108.023438 -106.640625 113.421875 -102.671875 C 118.816406 -98.710938 122.191406 -92.425781 123.546875 -83.8125 C 124.679688 -76.988281 125.710938 -69.734375 126.640625 -62.046875 C 127.578125 -54.367188 128.523438 -47.789062 129.484375 -42.3125 C 130.472656 -36.6875 132.835938 -32.773438 136.578125 -30.578125 C 140.328125 -28.378906 144.742188 -27.585938 149.828125 -28.203125 C 156.234375 -28.984375 161.765625 -31.394531 166.421875 -35.4375 C 171.078125 -39.488281 174.976562 -44.46875 178.125 -50.375 C 181.269531 -56.28125 183.757812 -62.5625 185.59375 -69.21875 C 187.4375 -75.875 188.757812 -82.128906 189.5625 -87.984375 L 204.046875 -79.078125 C 201.609375 -66.816406 198.132812 -55.832031 193.625 -46.125 C 189.125 -36.425781 183.265625 -28.5625 176.046875 -22.53125 C 168.835938 -16.507812 159.9375 -12.859375 149.34375 -11.578125 C 141.582031 -10.628906 135.296875 -11.300781 130.484375 -13.59375 C 125.671875 -15.882812 122.035156 -19.035156 119.578125 -23.046875 C 117.128906 -27.066406 115.5 -31.144531 114.6875 -35.28125 C 113.59375 -41.8125 112.566406 -48.988281 111.609375 -56.8125 C 110.660156 -64.644531 109.65625 -71.675781 108.59375 -77.90625 C 107.832031 -82.957031 105.828125 -86.679688 102.578125 -89.078125 C 99.328125 -91.484375 95.09375 -92.375 89.875 -91.75 C 83.757812 -91 78.078125 -88.523438 72.828125 -84.328125 C 67.585938 -80.140625 63.03125 -75.007812 59.15625 -68.9375 C 55.28125 -62.875 52.207031 -56.75 49.9375 -50.5625 C 48.6875 -47.09375 47.375 -42.925781 46 -38.0625 C 44.625 -33.195312 43.296875 -28.226562 42.015625 -23.15625 C 40.742188 -18.082031 39.625 -13.289062 38.65625 -8.78125 C 37.695312 -4.269531 37.003906 -0.628906 36.578125 2.140625 L 18.640625 -1.578125 C 20.421875 -9.367188 22.882812 -18.375 26.03125 -28.59375 C 29.1875 -38.8125 32.71875 -49.644531 36.625 -61.09375 C 40.53125 -72.550781 44.59375 -83.945312 48.8125 -95.28125 C 53.039062 -106.613281 57.078125 -117.320312 60.921875 -127.40625 C 64.765625 -137.488281 68.191406 -146.335938 71.203125 -153.953125 C 74.210938 -161.578125 76.46875 -167.304688 77.96875 -171.140625 C 79 -173.835938 79.988281 -176.566406 80.9375 -179.328125 C 81.882812 -182.085938 82.773438 -185.03125 83.609375 -188.15625 Z M 102.375 -183.203125 "/></g></g></g></g></g></svg>