<svg xmlns="http://www.w3.org/2000/svg" xmlns:xlink="http://www.w3.org/1999/xlink" width="1080" zoomAndPan="magnify" viewBox="0 0 810 809.999993" height="1080" preserveAspectRatio="xMidYMid meet" version="1.0"><defs><g/><clipPath id="11cc793c81"><path d="M 160 145 L 685 145 L 685 650 L 160 650 Z M 160 145 " clip-rule="nonzero"/></clipPath><clipPath id="a990a0e389"><path d="M 160.839844 206.222656 L 626.589844 145.957031 L 684.011719 589.730469 L 218.261719 650 Z M 160.839844 206.222656 " clip-rule="nonzero"/></clipPath><clipPath id="12cb7a93ef"><path d="M 0.800781 0.921875 L 524.238281 0.921875 L 524.238281 505 L 0.800781 505 Z M 0.800781 0.921875 " clip-rule="nonzero"/></clipPath><clipPath id="90f8378c0e"><path d="M 0.839844 61.222656 L 466.589844 0.957031 L 524.011719 444.730469 L 58.261719 505 Z M 0.839844 61.222656 " clip-rule="nonzero"/></clipPath><clipPath id="f59758e59d"><rect x="0" width="525" y="0" height="505"/></clipPath><clipPath id="11ec728224"><rect x="0" width="427" y="0" height="483"/></clipPath><clipPath id="7b119c28fa"><rect x="0" width="427" y="0" height="525"/></clipPath><clipPath id="9600c8908c"><rect x="0" width="264" y="0" height="334"/></clipPath></defs><g clip-path="url(#11cc793c81)"><g clip-path="url(#a990a0e389)"><g transform="matrix(1, 0, 0, 1, 160, 145)"><g clip-path="url(#f59758e59d)"><g clip-path="url(#12cb7a93ef)"><g clip-path="url(#90f8378c0e)"><path fill="#ffffd0" d="M 0.839844 61.222656 L 467.148438 0.886719 L 524.570312 444.660156 L 58.261719 505 Z M 0.839844 61.222656 " fill-opacity="1" fill-rule="nonzero"/></g></g></g></g></g></g><path stroke-linecap="butt" transform="matrix(0.0962455, 0.743799, -0.743799, 0.0962455, 168.275181, 205.262544)" fill="none" stroke-linejoin="miter" d="M -0.00235137 5.001712 L 589.108098 5.001744 " stroke="#4910bc" stroke-width="10" stroke-opacity="1" stroke-miterlimit="4"/><path stroke-linecap="butt" transform="matrix(0.743799, -0.0962455, 0.0962455, 0.743799, 164.075446, 202.024054)" fill="none" stroke-linejoin="miter" d="M 0.00268675 4.999191 L 598.786636 5.001029 " stroke="#4910bc" stroke-width="10" stroke-opacity="1" stroke-miterlimit="4"/><path stroke-linecap="butt" transform="matrix(0.743799, -0.0962455, 0.0962455, 0.743799, 216.622625, 637.338156)" fill="none" stroke-linejoin="miter" d="M -0.00205589 9.497178 L 598.787059 9.499685 " stroke="#4910bc" stroke-width="19" stroke-opacity="1" stroke-miterlimit="4"/><path stroke-linecap="butt" transform="matrix(0.324107, -0.676354, 0.676354, 0.324107, 556.537536, 600.080846)" fill="none" stroke-linejoin="miter" d="M -0.00332751 5.998774 L 258.252293 5.999594 " stroke="#561269" stroke-width="12" stroke-opacity="1" stroke-miterlimit="4"/><path stroke-linecap="butt" transform="matrix(0.0928856, 0.744226, -0.744226, 0.0928856, 624.93266, 146.234074)" fill="none" stroke-linejoin="miter" d="M -0.000020831 17.49805 L 589.11851 17.500546 " stroke="#8c52ff" stroke-width="35" stroke-opacity="1" stroke-miterlimit="4"/><path stroke-linecap="butt" transform="matrix(0.370504, 0.652094, -0.652094, 0.370504, 513.148154, 507.883578)" fill="none" stroke-linejoin="miter" d="M -0.00211186 6.000661 L 137.926869 5.997192 " stroke="#561269" stroke-width="12" stroke-opacity="1" stroke-miterlimit="4"/><path stroke-linecap="butt" transform="matrix(0.637467, -0.39514, 0.39514, 0.637467, 506.865026, 506.276899)" fill="none" stroke-linejoin="miter" d="M -0.0015946 5.998796 L 208.765333 5.998836 " stroke="#561269" stroke-width="12" stroke-opacity="1" stroke-miterlimit="4"/><g transform="matrix(1, 0, 0, 1, 0, 0.000000000000039746)"><g clip-path="url(#11ec728224)"><g fill="#000000" fill-opacity="1"><g transform="translate(41.301455, 373.486161)"><g><path d="M 166.421875 -221.640625 L 146.921875 -234.453125 C 151.210938 -238.304688 155.316406 -242.4375 159.234375 -246.84375 C 163.148438 -251.257812 166.226562 -254.820312 168.46875 -257.53125 C 162.28125 -260.851562 154.3125 -264.273438 144.5625 -267.796875 C 134.820312 -271.316406 124.492188 -274.59375 113.578125 -277.625 C 102.660156 -280.664062 92.21875 -283.222656 82.25 -285.296875 L 93.78125 -307.5625 C 103.75 -305.46875 114.78125 -302.765625 126.875 -299.453125 C 138.976562 -296.148438 150.753906 -292.59375 162.203125 -288.78125 C 173.648438 -284.976562 183.289062 -281.070312 191.125 -277.0625 L 200.6875 -260.796875 C 198.5 -257.847656 195.394531 -254.09375 191.375 -249.53125 C 187.351562 -244.96875 183.125 -240.175781 178.6875 -235.15625 C 174.257812 -230.144531 170.171875 -225.640625 166.421875 -221.640625 Z M 118.671875 -20.875 L 109.71875 -47.4375 C 119.164062 -46.757812 128.640625 -46.585938 138.140625 -46.921875 C 147.648438 -47.265625 158.222656 -48.570312 169.859375 -50.84375 C 175.429688 -51.925781 180.890625 -53.9375 186.234375 -56.875 C 191.585938 -59.8125 195.765625 -63.898438 198.765625 -69.140625 C 201.773438 -74.390625 202.5 -81.015625 200.9375 -89.015625 C 199.332031 -97.253906 195.046875 -105.664062 188.078125 -114.25 C 181.117188 -122.84375 173.148438 -131.109375 164.171875 -139.046875 C 155.203125 -146.992188 146.613281 -153.945312 138.40625 -159.90625 C 133.71875 -163.269531 128.351562 -166.878906 122.3125 -170.734375 C 116.28125 -174.597656 110.4375 -178.117188 104.78125 -181.296875 L 121.109375 -202.234375 C 126.066406 -198.671875 131.25 -194.960938 136.65625 -191.109375 C 142.070312 -187.253906 147.296875 -183.421875 152.328125 -179.609375 C 172.210938 -165.359375 189.070312 -151.144531 202.90625 -136.96875 C 216.75 -122.800781 225.253906 -107.597656 228.421875 -91.359375 C 230.554688 -80.429688 230.34375 -71.191406 227.78125 -63.640625 C 225.226562 -56.097656 221.238281 -49.78125 215.8125 -44.6875 C 210.382812 -39.601562 204.351562 -35.660156 197.71875 -32.859375 C 191.09375 -30.054688 184.75 -28.066406 178.6875 -26.890625 C 166.789062 -24.566406 155.828125 -22.992188 145.796875 -22.171875 C 135.765625 -21.347656 126.722656 -20.914062 118.671875 -20.875 Z M 342.21875 -94.640625 L 320.703125 -77.21875 C 315.078125 -87.945312 307.691406 -99.660156 298.546875 -112.359375 C 289.398438 -125.066406 279.535156 -137.242188 268.953125 -148.890625 C 258.367188 -160.546875 247.9375 -170.164062 237.65625 -177.75 L 257.140625 -194 C 267.535156 -185.957031 278.164062 -176.003906 289.03125 -164.140625 C 299.894531 -152.285156 310.046875 -140.222656 319.484375 -127.953125 C 328.929688 -115.691406 336.507812 -104.585938 342.21875 -94.640625 Z M 108.703125 -108.796875 C 103.085938 -100.148438 96.160156 -90.488281 87.921875 -79.8125 C 79.679688 -69.144531 70.6875 -58.457031 60.9375 -47.75 C 51.195312 -37.039062 41.164062 -27.15625 30.84375 -18.09375 L 11.375 -36.578125 C 20.28125 -43.859375 29.753906 -52.753906 39.796875 -63.265625 C 49.835938 -73.785156 59.316406 -84.570312 68.234375 -95.625 C 77.148438 -106.675781 84.300781 -116.5 89.6875 -125.09375 Z M 108.703125 -108.796875 "/></g></g></g></g></g><g transform="matrix(1, 0, 0, 1, 185, 114)"><g clip-path="url(#7b119c28fa)"><g fill="#000000" fill-opacity="1"><g transform="translate(74.412291, 425.425192)"><g><path d="M 164.703125 -298.890625 L 189.875 -304.125 C 190.257812 -301.207031 190.753906 -297.445312 191.359375 -292.84375 C 191.972656 -288.25 192.628906 -284.296875 193.328125 -280.984375 C 194.660156 -273.441406 196.1875 -265.53125 197.90625 -257.25 C 199.625 -248.976562 201.15625 -241.066406 202.5 -233.515625 C 209.425781 -235.648438 216.046875 -237.601562 222.359375 -239.375 C 228.671875 -241.15625 234.554688 -242.726562 240.015625 -244.09375 C 244.390625 -245.226562 248.648438 -246.34375 252.796875 -247.4375 C 256.953125 -248.53125 260.769531 -249.554688 264.25 -250.515625 L 269.21875 -226.6875 C 266.75 -226.394531 263.085938 -225.742188 258.234375 -224.734375 C 253.378906 -223.722656 248.847656 -222.78125 244.640625 -221.90625 C 239.617188 -220.632812 233.882812 -219.15625 227.4375 -217.46875 C 221 -215.78125 213.960938 -213.910156 206.328125 -211.859375 C 207.710938 -204.085938 209.15625 -195.75 210.65625 -186.84375 C 212.164062 -177.945312 213.40625 -169.515625 214.375 -161.546875 C 215.351562 -153.578125 215.835938 -146.828125 215.828125 -141.296875 C 215.929688 -134.171875 214.382812 -128.894531 211.1875 -125.46875 C 207.988281 -122.039062 202.75 -119.570312 195.46875 -118.0625 C 191.488281 -117.226562 186.625 -116.5 180.875 -115.875 C 175.132812 -115.257812 169.644531 -114.8125 164.40625 -114.53125 C 159.175781 -114.25 155.078125 -114.03125 152.109375 -113.875 L 148.375 -135.203125 C 154.375 -135.066406 160.546875 -135.257812 166.890625 -135.78125 C 173.234375 -136.300781 178.390625 -136.972656 182.359375 -137.796875 C 186.554688 -138.671875 189.476562 -139.851562 191.125 -141.34375 C 192.769531 -142.832031 193.421875 -145.5 193.078125 -149.34375 C 193.046875 -155.09375 192.210938 -163.265625 190.578125 -173.859375 C 188.953125 -184.460938 187.117188 -195.195312 185.078125 -206.0625 C 168.410156 -200.976562 150.8125 -195.644531 132.28125 -190.0625 C 113.757812 -184.476562 96.289062 -179.054688 79.875 -173.796875 C 82.257812 -162.316406 84.585938 -151.113281 86.859375 -140.1875 C 89.140625 -129.257812 91.164062 -119.546875 92.9375 -111.046875 C 94.707031 -102.554688 96.144531 -96.234375 97.25 -92.078125 C 99.332031 -83.078125 101.472656 -75.523438 103.671875 -69.421875 C 105.867188 -63.316406 109.066406 -58.742188 113.265625 -55.703125 C 117.472656 -52.660156 123.734375 -51.082031 132.046875 -50.96875 C 140.359375 -50.863281 151.796875 -52.332031 166.359375 -55.375 C 178.503906 -57.894531 190.6875 -60.769531 202.90625 -64 C 215.132812 -67.226562 226.472656 -70.566406 236.921875 -74.015625 C 247.367188 -77.460938 255.898438 -80.453125 262.515625 -82.984375 L 266.6875 -57.953125 C 259.539062 -55.765625 250.765625 -53.125 240.359375 -50.03125 C 229.953125 -46.945312 218.859375 -43.832031 207.078125 -40.6875 C 195.296875 -37.550781 183.773438 -34.8125 172.515625 -32.46875 C 153.972656 -28.613281 138.984375 -26.757812 127.546875 -26.90625 C 116.117188 -27.0625 107.148438 -29.222656 100.640625 -33.390625 C 94.140625 -37.566406 89.082031 -43.878906 85.46875 -52.328125 C 81.863281 -60.785156 78.515625 -71.375 75.421875 -84.09375 C 74.410156 -88.945312 72.9375 -95.71875 71 -104.40625 C 69.070312 -113.101562 66.96875 -122.914062 64.6875 -133.84375 C 62.414062 -144.769531 60.132812 -155.75 57.84375 -166.78125 C 50.53125 -164.332031 43.75 -162.054688 37.5 -159.953125 C 31.257812 -157.847656 25.976562 -156.117188 21.65625 -154.765625 C 16.738281 -153.054688 11.375 -151.191406 5.5625 -149.171875 C -0.238281 -147.148438 -5.273438 -145.347656 -9.546875 -143.765625 L -17.296875 -167.734375 C -12.222656 -168.785156 -6.847656 -170.070312 -1.171875 -171.59375 C 4.492188 -173.125 10.035156 -174.679688 15.453125 -176.265625 C 19.773438 -177.617188 25.191406 -179.265625 31.703125 -181.203125 C 38.210938 -183.140625 45.457031 -185.394531 53.4375 -187.96875 L 43.84375 -235.734375 C 42.882812 -240.359375 41.878906 -244.632812 40.828125 -248.5625 C 39.785156 -252.488281 38.3125 -256.789062 36.40625 -261.46875 L 62.578125 -266.921875 C 62.867188 -263.285156 63.347656 -259.289062 64.015625 -254.9375 C 64.691406 -250.59375 65.507812 -246.109375 66.46875 -241.484375 L 75.8125 -195.046875 C 91.8125 -199.992188 108.953125 -205.289062 127.234375 -210.9375 C 145.515625 -216.59375 163.4375 -222.054688 181 -227.328125 C 179.570312 -235.304688 177.960938 -243.597656 176.171875 -252.203125 C 174.378906 -260.816406 172.769531 -268.546875 171.34375 -275.390625 C 170.5625 -279.140625 169.523438 -283.296875 168.234375 -287.859375 C 166.941406 -292.429688 165.765625 -296.109375 164.703125 -298.890625 Z M 164.703125 -298.890625 "/></g></g></g></g></g><g transform="matrix(1, 0, 0, 1, 320, 476)"><g clip-path="url(#9600c8908c)"><g fill="#000000" fill-opacity="1"><g transform="translate(31.324464, 270.148666)"><g><path d="M 100.96875 -183.96875 C 99.21875 -181.007812 97.296875 -177.125 95.203125 -172.3125 C 93.296875 -168.28125 90.898438 -162.78125 88.015625 -155.8125 C 85.128906 -148.851562 82.085938 -141.335938 78.890625 -133.265625 C 75.691406 -125.203125 72.582031 -117.300781 69.5625 -109.5625 C 66.550781 -101.820312 63.914062 -95.003906 61.65625 -89.109375 C 66.632812 -95.054688 71.8125 -99.515625 77.1875 -102.484375 C 82.5625 -105.453125 88.007812 -107.296875 93.53125 -108.015625 C 100.832031 -108.953125 107.195312 -107.460938 112.625 -103.546875 C 118.050781 -99.628906 121.472656 -93.367188 122.890625 -84.765625 C 124.066406 -77.941406 125.148438 -70.691406 126.140625 -63.015625 C 127.140625 -55.347656 128.144531 -48.78125 129.15625 -43.3125 C 130.195312 -37.6875 132.597656 -33.789062 136.359375 -31.625 C 140.128906 -29.46875 144.546875 -28.71875 149.609375 -29.375 C 156.015625 -30.195312 161.523438 -32.644531 166.140625 -36.71875 C 170.765625 -40.800781 174.625 -45.804688 177.71875 -51.734375 C 180.820312 -57.671875 183.269531 -63.972656 185.0625 -70.640625 C 186.851562 -77.304688 188.128906 -83.578125 188.890625 -89.453125 L 203.4375 -80.640625 C 201.082031 -68.367188 197.691406 -57.363281 193.265625 -47.625 C 188.847656 -37.882812 183.050781 -29.972656 175.875 -23.890625 C 168.707031 -17.816406 159.835938 -14.09375 149.265625 -12.71875 C 141.515625 -11.71875 135.21875 -12.34375 130.375 -14.59375 C 125.539062 -16.851562 121.878906 -19.976562 119.390625 -23.96875 C 116.910156 -27.96875 115.25 -32.035156 114.40625 -36.171875 C 113.269531 -42.691406 112.191406 -49.859375 111.171875 -57.671875 C 110.160156 -65.492188 109.097656 -72.519531 107.984375 -78.75 C 107.179688 -83.800781 105.148438 -87.515625 101.890625 -89.890625 C 98.628906 -92.273438 94.390625 -93.128906 89.171875 -92.453125 C 83.066406 -91.660156 77.40625 -89.144531 72.1875 -84.90625 C 66.976562 -80.664062 62.457031 -75.492188 58.625 -69.390625 C 54.789062 -63.296875 51.765625 -57.148438 49.546875 -50.953125 C 48.328125 -47.460938 47.046875 -43.285156 45.703125 -38.421875 C 44.367188 -33.554688 43.082031 -28.578125 41.84375 -23.484375 C 40.613281 -18.398438 39.53125 -13.597656 38.59375 -9.078125 C 37.65625 -4.554688 36.992188 -0.910156 36.609375 1.859375 L 18.640625 -1.734375 C 20.359375 -9.523438 22.75 -18.539062 25.8125 -28.78125 C 28.882812 -39.03125 32.328125 -49.894531 36.140625 -61.375 C 39.960938 -72.863281 43.941406 -84.289062 48.078125 -95.65625 C 52.210938 -107.03125 56.160156 -117.769531 59.921875 -127.875 C 63.691406 -137.976562 67.050781 -146.851562 70 -154.5 C 72.945312 -162.15625 75.160156 -167.898438 76.640625 -171.734375 C 77.660156 -174.441406 78.632812 -177.179688 79.5625 -179.953125 C 80.488281 -182.722656 81.351562 -185.671875 82.15625 -188.796875 Z M 100.96875 -183.96875 "/></g></g></g></g></g></svg>