<svg xmlns="http://www.w3.org/2000/svg" xmlns:xlink="http://www.w3.org/1999/xlink" width="1080" zoomAndPan="magnify" viewBox="0 0 810 809.999993" height="1080" preserveAspectRatio="xMidYMid meet" version="1.0"><defs><g/><clipPath id="991487b142"><rect x="0" width="396" y="0" height="480"/></clipPath><clipPath id="e89e1e738c"><rect x="0" width="426" y="0" height="513"/></clipPath><clipPath id="326b5dfbb9"><rect x="0" width="315" y="0" height="394"/></clipPath></defs><path stroke-linecap="butt" transform="matrix(0.12856, 0.738899, -0.738899, 0.12856, 157.286187, 229.955867)" fill="none" stroke-linejoin="miter" d="M -0.00175075 5.002194 L 589.108741 4.999318 " stroke="#8c52ff" stroke-width="10" stroke-opacity="1" stroke-miterlimit="4"/><path stroke-linecap="butt" transform="matrix(0.738899, -0.12856, 0.12856, 0.738899, 152.949327, 226.903367)" fill="none" stroke-linejoin="miter" d="M 0.00217811 5.000098 L 598.786754 4.999272 " stroke="#8c52ff" stroke-width="10" stroke-opacity="1" stroke-miterlimit="4"/><path stroke-linecap="butt" transform="matrix(0.738899, -0.12856, 0.12856, 0.738899, 224.991028, 662.839787)" fill="none" stroke-linejoin="miter" d="M -0.00153497 5.000914 L 598.78304 5.000088 " stroke="#8c52ff" stroke-width="10" stroke-opacity="1" stroke-miterlimit="4"/><path stroke-linecap="butt" transform="matrix(0.294332, -0.689832, 0.689832, 0.294332, 564.795791, 608.513533)" fill="none" stroke-linejoin="miter" d="M -0.0012202 2.499302 L 258.248108 2.500247 " stroke="#8c52ff" stroke-width="5" stroke-opacity="1" stroke-miterlimit="4"/><path stroke-linecap="butt" transform="matrix(0.125222, 0.739472, -0.739472, 0.125222, 601.694925, 152.652814)" fill="none" stroke-linejoin="miter" d="M -0.00240462 5.00158 L 589.116554 4.997832 " stroke="#8c52ff" stroke-width="10" stroke-opacity="1" stroke-miterlimit="4"/><path stroke-linecap="butt" transform="matrix(0.398563, 0.635333, -0.635333, 0.398563, 512.475026, 518.858202)" fill="none" stroke-linejoin="miter" d="M 0.000167258 2.002049 L 137.926525 2.001467 " stroke="#8c52ff" stroke-width="4" stroke-opacity="1" stroke-miterlimit="4"/><path stroke-linecap="butt" transform="matrix(0.619646, -0.422538, 0.422538, 0.619646, 510.359402, 518.41089)" fill="none" stroke-linejoin="miter" d="M -0.000180585 1.997061 L 208.767755 1.999529 " stroke="#8c52ff" stroke-width="4" stroke-opacity="1" stroke-miterlimit="4"/><g transform="matrix(1, 0, 0, 1, 31, 65)"><g clip-path="url(#991487b142)"><g fill="#000000" fill-opacity="1"><g transform="translate(77.22822, 390.623724)"><g><path d="M 128.78125 -188.0625 L 112.3125 -197.890625 C 115.6875 -201.210938 118.90625 -204.753906 121.96875 -208.515625 C 125.039062 -212.285156 127.453125 -215.316406 129.203125 -217.609375 C 123.992188 -220.128906 117.320312 -222.660156 109.1875 -225.203125 C 101.050781 -227.742188 92.445312 -230.0625 83.375 -232.15625 C 74.300781 -234.257812 65.625 -235.988281 57.34375 -237.34375 L 66.03125 -256.046875 C 74.289062 -254.679688 83.453125 -252.859375 93.515625 -250.578125 C 103.578125 -248.296875 113.378906 -245.789062 122.921875 -243.0625 C 132.460938 -240.34375 140.519531 -237.476562 147.09375 -234.46875 L 155.5625 -221.453125 C 153.863281 -218.953125 151.441406 -215.753906 148.296875 -211.859375 C 145.148438 -207.972656 141.84375 -203.890625 138.375 -199.609375 C 134.914062 -195.328125 131.71875 -191.476562 128.78125 -188.0625 Z M 96.75 -21.390625 L 88.453125 -42.90625 C 96.234375 -42.6875 104.019531 -42.890625 111.8125 -43.515625 C 119.601562 -44.140625 128.242188 -45.59375 137.734375 -47.875 C 142.273438 -48.957031 146.6875 -50.796875 150.96875 -53.390625 C 155.257812 -55.992188 158.546875 -59.5 160.828125 -63.90625 C 163.109375 -68.320312 163.46875 -73.796875 161.90625 -80.328125 C 160.289062 -87.046875 156.46875 -93.804688 150.4375 -100.609375 C 144.40625 -107.410156 137.5625 -113.914062 129.90625 -120.125 C 122.25 -126.332031 114.941406 -131.734375 107.984375 -136.328125 C 104.023438 -138.921875 99.488281 -141.695312 94.375 -144.65625 C 89.269531 -147.625 84.34375 -150.304688 79.59375 -152.703125 L 92.25 -170.484375 C 96.457031 -167.734375 100.851562 -164.867188 105.4375 -161.890625 C 110.019531 -158.921875 114.445312 -155.960938 118.71875 -153.015625 C 135.570312 -142.023438 149.9375 -130.957031 161.8125 -119.8125 C 173.695312 -108.664062 181.226562 -96.472656 184.40625 -83.234375 C 186.550781 -74.335938 186.703125 -66.742188 184.859375 -60.453125 C 183.023438 -54.171875 179.96875 -48.835938 175.6875 -44.453125 C 171.414062 -40.078125 166.609375 -36.617188 161.265625 -34.078125 C 155.921875 -31.535156 150.773438 -29.671875 145.828125 -28.484375 C 136.148438 -26.148438 127.203125 -24.46875 118.984375 -23.4375 C 110.773438 -22.40625 103.363281 -21.722656 96.75 -21.390625 Z M 277.765625 -90.015625 L 260.703125 -74.9375 C 255.703125 -83.550781 249.21875 -92.910156 241.25 -103.015625 C 233.28125 -113.117188 224.742188 -122.769531 215.640625 -131.96875 C 206.535156 -141.164062 197.617188 -148.6875 188.890625 -154.53125 L 204.3125 -168.59375 C 213.125 -162.351562 222.210938 -154.554688 231.578125 -145.203125 C 240.941406 -135.859375 249.71875 -126.316406 257.90625 -116.578125 C 266.09375 -106.835938 272.710938 -97.984375 277.765625 -90.015625 Z M 85.421875 -93.265625 C 81.117188 -85.972656 75.769531 -77.796875 69.375 -68.734375 C 62.988281 -59.671875 55.984375 -50.566406 48.359375 -41.421875 C 40.734375 -32.273438 32.84375 -23.789062 24.6875 -15.96875 L 8.03125 -30.46875 C 15.082031 -36.769531 22.539062 -44.414062 30.40625 -53.40625 C 38.28125 -62.40625 45.6875 -71.601562 52.625 -81 C 59.570312 -90.40625 65.097656 -98.738281 69.203125 -106 Z M 85.421875 -93.265625 "/></g></g></g></g></g><g transform="matrix(1, 0, 0, 1, 190, 215)"><g clip-path="url(#e89e1e738c)"><g fill="#000000" fill-opacity="1"><g transform="translate(86.812532, 418.088953)"><g><path d="M 145.390625 -293.359375 L 169.28125 -299.421875 C 169.769531 -296.640625 170.398438 -293.0625 171.171875 -288.6875 C 171.953125 -284.320312 172.742188 -280.566406 173.546875 -277.421875 C 175.140625 -270.234375 176.929688 -262.707031 178.921875 -254.84375 C 180.921875 -246.976562 182.722656 -239.457031 184.328125 -232.28125 C 190.878906 -234.625 197.140625 -236.773438 203.109375 -238.734375 C 209.078125 -240.703125 214.65625 -242.453125 219.84375 -243.984375 C 224 -245.265625 228.039062 -246.515625 231.96875 -247.734375 C 235.894531 -248.960938 239.507812 -250.101562 242.8125 -251.15625 L 248.5625 -228.515625 C 246.195312 -228.140625 242.707031 -227.363281 238.09375 -226.1875 C 233.488281 -225.019531 229.191406 -223.925781 225.203125 -222.90625 C 220.441406 -221.476562 215.007812 -219.820312 208.90625 -217.9375 C 202.800781 -216.050781 196.128906 -213.96875 188.890625 -211.6875 C 190.546875 -204.300781 192.285156 -196.375 194.109375 -187.90625 C 195.929688 -179.445312 197.472656 -171.410156 198.734375 -163.796875 C 199.992188 -156.191406 200.734375 -149.742188 200.953125 -144.453125 C 201.359375 -137.628906 200.097656 -132.507812 197.171875 -129.09375 C 194.242188 -125.675781 189.328125 -123.085938 182.421875 -121.328125 C 178.640625 -120.367188 174.007812 -119.472656 168.53125 -118.640625 C 163.050781 -117.804688 157.804688 -117.140625 152.796875 -116.640625 C 147.785156 -116.148438 143.863281 -115.773438 141.03125 -115.515625 L 136.546875 -135.796875 C 142.304688 -135.921875 148.21875 -136.359375 154.28125 -137.109375 C 160.34375 -137.867188 165.257812 -138.726562 169.03125 -139.6875 C 173.007812 -140.695312 175.753906 -141.953125 177.265625 -143.453125 C 178.785156 -144.953125 179.304688 -147.539062 178.828125 -151.21875 C 178.546875 -156.726562 177.398438 -164.523438 175.390625 -174.609375 C 173.378906 -184.703125 171.175781 -194.914062 168.78125 -205.25 C 153.007812 -199.664062 136.359375 -193.8125 118.828125 -187.6875 C 101.304688 -181.570312 84.796875 -175.648438 69.296875 -169.921875 C 72.066406 -159.015625 74.769531 -148.375 77.40625 -138 C 80.050781 -127.625 82.394531 -118.398438 84.4375 -110.328125 C 86.488281 -102.253906 88.117188 -96.253906 89.328125 -92.328125 C 91.734375 -83.785156 94.113281 -76.632812 96.46875 -70.875 C 98.832031 -65.113281 102.085938 -60.863281 106.234375 -58.125 C 110.390625 -55.382812 116.453125 -54.132812 124.421875 -54.375 C 132.398438 -54.625 143.304688 -56.503906 157.140625 -60.015625 C 168.660156 -62.953125 180.210938 -66.222656 191.796875 -69.828125 C 203.390625 -73.429688 214.117188 -77.101562 223.984375 -80.84375 C 233.859375 -84.582031 241.914062 -87.804688 248.15625 -90.515625 L 253.203125 -66.6875 C 246.441406 -64.289062 238.132812 -61.394531 228.28125 -58 C 218.425781 -54.613281 207.914062 -51.164062 196.75 -47.65625 C 185.59375 -44.144531 174.675781 -41.03125 164 -38.3125 C 146.382812 -33.832031 132.097656 -31.425781 121.140625 -31.09375 C 110.179688 -30.769531 101.488281 -32.472656 95.0625 -36.203125 C 88.644531 -39.929688 83.535156 -45.773438 79.734375 -53.734375 C 75.929688 -61.691406 72.28125 -71.695312 68.78125 -83.75 C 67.601562 -88.363281 65.910156 -94.796875 63.703125 -103.046875 C 61.492188 -111.296875 59.070312 -120.609375 56.4375 -130.984375 C 53.800781 -141.359375 51.148438 -151.785156 48.484375 -162.265625 C 41.566406 -159.628906 35.15625 -157.171875 29.25 -154.890625 C 23.351562 -152.609375 18.367188 -150.726562 14.296875 -149.25 C 9.640625 -147.394531 4.570312 -145.378906 -0.90625 -143.203125 C -6.382812 -141.035156 -11.140625 -139.101562 -15.171875 -137.40625 L -23.59375 -160.046875 C -18.757812 -161.273438 -13.660156 -162.734375 -8.296875 -164.421875 C -2.941406 -166.117188 2.300781 -167.847656 7.4375 -169.609375 C 11.539062 -171.078125 16.664062 -172.875 22.8125 -175 C 28.957031 -177.125 35.8125 -179.585938 43.375 -182.390625 L 32.1875 -227.765625 C 31.0625 -232.171875 29.910156 -236.234375 28.734375 -239.953125 C 27.566406 -243.671875 25.984375 -247.734375 23.984375 -252.140625 L 48.8125 -258.453125 C 49.25 -254.984375 49.878906 -251.175781 50.703125 -247.03125 C 51.535156 -242.894531 52.507812 -238.617188 53.625 -234.203125 L 64.484375 -190.125 C 79.628906 -195.539062 95.847656 -201.332031 113.140625 -207.5 C 130.429688 -213.675781 147.378906 -219.65625 163.984375 -225.4375 C 162.285156 -233.039062 160.394531 -240.929688 158.3125 -249.109375 C 156.238281 -257.285156 154.375 -264.617188 152.71875 -271.109375 C 151.8125 -274.671875 150.640625 -278.613281 149.203125 -282.9375 C 147.765625 -287.257812 146.492188 -290.734375 145.390625 -293.359375 Z M 145.390625 -293.359375 "/></g></g></g></g></g><g transform="matrix(1, 0, 0, 1, 415, 114)"><g clip-path="url(#326b5dfbb9)"><g fill="#000000" fill-opacity="1"><g transform="translate(47.926958, 317.165726)"><g><path d="M 105.90625 -214.625 C 104.0625 -211.175781 102.0625 -206.660156 99.90625 -201.078125 C 97.9375 -196.378906 95.476562 -189.988281 92.53125 -181.90625 C 89.59375 -173.832031 86.503906 -165.117188 83.265625 -155.765625 C 80.023438 -146.410156 76.878906 -137.25 73.828125 -128.28125 C 70.773438 -119.320312 68.101562 -111.425781 65.8125 -104.59375 C 71.195312 -111.625 76.878906 -116.957031 82.859375 -120.59375 C 88.835938 -124.238281 94.945312 -126.609375 101.1875 -127.703125 C 109.457031 -129.140625 116.785156 -127.757812 123.171875 -123.5625 C 129.554688 -119.375 133.773438 -112.414062 135.828125 -102.6875 C 137.503906 -94.976562 139.097656 -86.773438 140.609375 -78.078125 C 142.128906 -69.390625 143.597656 -61.953125 145.015625 -55.765625 C 146.460938 -49.410156 149.382812 -45.085938 153.78125 -42.796875 C 158.1875 -40.515625 163.257812 -39.875 169 -40.875 C 176.257812 -42.144531 182.421875 -45.21875 187.484375 -50.09375 C 192.546875 -54.976562 196.691406 -60.875 199.921875 -67.78125 C 203.148438 -74.695312 205.617188 -82 207.328125 -89.6875 C 209.046875 -97.382812 210.191406 -104.582031 210.765625 -111.28125 L 227.765625 -101.984375 C 225.703125 -87.878906 222.390625 -75.171875 217.828125 -63.859375 C 213.273438 -52.546875 207.066406 -43.242188 199.203125 -35.953125 C 191.335938 -28.671875 181.410156 -23.988281 169.421875 -21.90625 C 160.648438 -20.382812 153.453125 -20.785156 147.828125 -23.109375 C 142.210938 -25.441406 137.882812 -28.820312 134.84375 -33.25 C 131.8125 -37.675781 129.710938 -42.21875 128.546875 -46.875 C 126.921875 -54.25 125.335938 -62.367188 123.796875 -71.234375 C 122.253906 -80.109375 120.695312 -88.0625 119.125 -95.09375 C 117.957031 -100.789062 115.453125 -104.914062 111.609375 -107.46875 C 107.773438 -110.019531 102.910156 -110.785156 97.015625 -109.765625 C 90.085938 -108.554688 83.757812 -105.410156 78.03125 -100.328125 C 72.3125 -95.242188 67.414062 -89.128906 63.34375 -81.984375 C 59.28125 -74.847656 56.132812 -67.6875 53.90625 -60.5 C 52.695312 -56.46875 51.453125 -51.644531 50.171875 -46.03125 C 48.890625 -40.425781 47.671875 -34.695312 46.515625 -28.84375 C 45.359375 -22.988281 44.359375 -17.460938 43.515625 -12.265625 C 42.679688 -7.078125 42.109375 -2.890625 41.796875 0.296875 L 21.140625 -2.90625 C 22.722656 -11.875 25.003906 -22.269531 27.984375 -34.09375 C 30.972656 -45.914062 34.351562 -58.460938 38.125 -71.734375 C 41.90625 -85.003906 45.867188 -98.21875 50.015625 -111.375 C 54.171875 -124.53125 58.144531 -136.957031 61.9375 -148.65625 C 65.726562 -160.363281 69.109375 -170.648438 72.078125 -179.515625 C 75.054688 -188.378906 77.289062 -195.035156 78.78125 -199.484375 C 79.800781 -202.609375 80.773438 -205.773438 81.703125 -208.984375 C 82.628906 -212.191406 83.472656 -215.601562 84.234375 -219.21875 Z M 105.90625 -214.625 "/></g></g></g></g></g></svg>