<svg xmlns="http://www.w3.org/2000/svg" xmlns:xlink="http://www.w3.org/1999/xlink" width="1080" zoomAndPan="magnify" viewBox="0 0 810 809.999993" height="1080" preserveAspectRatio="xMidYMid meet" version="1.0"><defs><clipPath id="1ec9896fd3"><path d="M 21 532 L 387 532 L 387 720 L 21 720 Z M 21 532 " clip-rule="nonzero"/></clipPath><clipPath id="1beaa82c0f"><path d="M 21.746094 685.257812 L 371.519531 532.269531 L 386.300781 566.0625 L 36.527344 719.054688 Z M 21.746094 685.257812 " clip-rule="nonzero"/></clipPath><clipPath id="24d1e9e65c"><path d="M 0.601562 0.078125 L 365.398438 0.078125 L 365.398438 187.28125 L 0.601562 187.28125 Z M 0.601562 0.078125 " clip-rule="nonzero"/></clipPath><clipPath id="cc3d1faf01"><path d="M 0.746094 153.257812 L 350.519531 0.269531 L 365.300781 34.0625 L 15.527344 187.054688 Z M 0.746094 153.257812 " clip-rule="nonzero"/></clipPath><clipPath id="479a2d7757"><rect x="0" width="366" y="0" height="188"/></clipPath><clipPath id="b0a1e1062d"><path d="M 359 246 L 624 246 L 624 570 L 359 570 Z M 359 246 " clip-rule="nonzero"/></clipPath><clipPath id="b611164658"><path d="M 359.535156 546.789062 L 594.644531 246.007812 L 623.707031 268.726562 L 388.59375 569.503906 Z M 359.535156 546.789062 " clip-rule="nonzero"/></clipPath><clipPath id="24ec88c611"><path d="M 0.519531 0 L 264.761719 0 L 264.761719 323.519531 L 0.519531 323.519531 Z M 0.519531 0 " clip-rule="nonzero"/></clipPath><clipPath id="c8a677004f"><path d="M 0.535156 300.789062 L 235.644531 0.0078125 L 264.707031 22.726562 L 29.59375 323.503906 Z M 0.535156 300.789062 " clip-rule="nonzero"/></clipPath><clipPath id="f7d49a555c"><rect x="0" width="265" y="0" height="324"/></clipPath><clipPath id="e776fb5520"><path d="M 335.074219 514.039062 L 422.757812 514.039062 L 422.757812 601.722656 L 335.074219 601.722656 Z M 335.074219 514.039062 " clip-rule="nonzero"/></clipPath><clipPath id="9a178204b0"><path d="M 378.917969 514.039062 C 354.703125 514.039062 335.074219 533.667969 335.074219 557.878906 C 335.074219 582.09375 354.703125 601.722656 378.917969 601.722656 C 403.128906 601.722656 422.757812 582.09375 422.757812 557.878906 C 422.757812 533.667969 403.128906 514.039062 378.917969 514.039062 Z M 378.917969 514.039062 " clip-rule="nonzero"/></clipPath><clipPath id="77e6cfdb42"><path d="M 0.0742188 0.0390625 L 87.757812 0.0390625 L 87.757812 87.722656 L 0.0742188 87.722656 Z M 0.0742188 0.0390625 " clip-rule="nonzero"/></clipPath><clipPath id="c59ca3a08a"><path d="M 43.917969 0.0390625 C 19.703125 0.0390625 0.0742188 19.667969 0.0742188 43.878906 C 0.0742188 68.09375 19.703125 87.722656 43.917969 87.722656 C 68.128906 87.722656 87.757812 68.09375 87.757812 43.878906 C 87.757812 19.667969 68.128906 0.0390625 43.917969 0.0390625 Z M 43.917969 0.0390625 " clip-rule="nonzero"/></clipPath><clipPath id="b783cb33dc"><rect x="0" width="88" y="0" height="88"/></clipPath><clipPath id="2cb237a1c2"><path d="M 506 127 L 699 127 L 699 343 L 506 343 Z M 506 127 " clip-rule="nonzero"/></clipPath><clipPath id="26b9e806e5"><path d="M 608.75 68.90625 L 788.515625 185.613281 L 686.542969 342.679688 L 506.777344 225.96875 Z M 608.75 68.90625 " clip-rule="nonzero"/></clipPath><clipPath id="2f02795b28"><path d="M 698.5 127.175781 L 686.28125 342.507812 L 506.777344 225.96875 Z M 698.5 127.175781 " clip-rule="nonzero"/></clipPath><clipPath id="87e5f97c5c"><path d="M 0.640625 0 L 192.640625 0 L 192.640625 215.71875 L 0.640625 215.71875 Z M 0.640625 0 " clip-rule="nonzero"/></clipPath><clipPath id="86ce7dfff1"><path d="M 102.75 -58.09375 L 282.515625 58.613281 L 180.542969 215.679688 L 0.777344 98.96875 Z M 102.75 -58.09375 " clip-rule="nonzero"/></clipPath><clipPath id="6a37e73e78"><path d="M 192.5 0.175781 L 180.28125 215.507812 L 0.777344 98.96875 Z M 192.5 0.175781 " clip-rule="nonzero"/></clipPath><clipPath id="1da1938de2"><rect x="0" width="193" y="0" height="216"/></clipPath></defs><g clip-path="url(#1ec9896fd3)"><g clip-path="url(#1beaa82c0f)"><g transform="matrix(1, 0, 0, 1, 21, 532)"><g clip-path="url(#479a2d7757)"><g clip-path="url(#24d1e9e65c)"><g clip-path="url(#cc3d1faf01)"><path fill="#38b6ff" d="M 0.746094 153.257812 L 350.5625 0.25 L 365.34375 34.042969 L 15.527344 187.054688 Z M 0.746094 153.257812 " fill-opacity="1" fill-rule="nonzero"/></g></g></g></g></g></g><g clip-path="url(#b0a1e1062d)"><g clip-path="url(#b611164658)"><g transform="matrix(1, 0, 0, 1, 359, 246)"><g clip-path="url(#f7d49a555c)"><g clip-path="url(#24ec88c611)"><g clip-path="url(#c8a677004f)"><path fill="#38b6ff" d="M 0.535156 300.789062 L 235.671875 -0.0273438 L 264.734375 22.6875 L 29.59375 323.503906 Z M 0.535156 300.789062 " fill-opacity="1" fill-rule="nonzero"/></g></g></g></g></g></g><g clip-path="url(#e776fb5520)"><g clip-path="url(#9a178204b0)"><g transform="matrix(1, 0, 0, 1, 335, 514)"><g clip-path="url(#b783cb33dc)"><g clip-path="url(#77e6cfdb42)"><g clip-path="url(#c59ca3a08a)"><path fill="#7ed957" d="M 0.0742188 0.0390625 L 87.757812 0.0390625 L 87.757812 87.722656 L 0.0742188 87.722656 Z M 0.0742188 0.0390625 " fill-opacity="1" fill-rule="nonzero"/></g></g></g></g></g></g><g clip-path="url(#2cb237a1c2)"><g clip-path="url(#26b9e806e5)"><g clip-path="url(#2f02795b28)"><g transform="matrix(1, 0, 0, 1, 506, 127)"><g clip-path="url(#1da1938de2)"><g clip-path="url(#87e5f97c5c)"><g clip-path="url(#86ce7dfff1)"><g clip-path="url(#6a37e73e78)"><path fill="#ff3131" d="M 102.75 -58.09375 L 282.515625 58.613281 L 180.542969 215.679688 L 0.777344 98.96875 Z M 102.75 -58.09375 " fill-opacity="1" fill-rule="nonzero"/></g></g></g></g></g></g></g></g></svg>